<svg width="359" height="74" viewBox="0 0 359 74" fill="none" xmlns="http://www.w3.org/2000/svg">
<g clip-path="url(#clip0_1342_573)">
<g filter="url(#filter0_iiii_1342_573)">
<rect width="359" height="74" rx="21" fill="url(#paint0_linear_1342_573)"/>
</g>
<path d="M27.6723 50.7443C22.2097 55.4491 22.8872 61.3241 30.2643 58.8793C24.9517 69.052 33.0331 76.4479 39.0554 71.4031C39.2133 81.4259 47.1368 78.9998 50.2858 72.9321C52.1441 81.3803 59.7811 81.6776 64.9357 75.5054C64.2556 83.6725 76.9132 81.2518 77.4595 76.539C77.5559 83.4636 84.1913 86.0878 89.1452 80.4538C88.9818 84.6365 99.2429 83.0325 98.3057 78.9891C101.982 82.7754 110.971 81.1206 110.246 76.3569C112.546 78.084 116.26 76.2257 115.071 73.9951C120.86 74.9484 126.122 68.2112 123.726 64.2937C128.438 64.8399 134.137 58.1536 125.517 55.0876C131.799 55.3661 130.487 48.8217 125.541 49.5393C132.562 46.8991 131.633 36.7638 123.15 39.5299C128.594 30.6372 123.198 24.2374 113.258 26.9445C108.738 16.7531 76.7258 6.40628 59.7811 20.6786C43.5861 25.1424 27.6723 50.7443 27.6723 50.7443Z" fill="#000D19"/>
<path d="M47.5647 54.4715C46.8658 72.581 60.5303 85.1825 77.9678 85.8546C95.4052 86.5294 110.002 75.0205 110.703 56.9109C111.402 38.804 97.8152 24.2291 80.3751 23.557C62.9376 22.8822 48.2636 36.3646 47.5647 54.4715Z" fill="#C87E42"/>
<path d="M54.7974 47.1801C54.9553 47.1828 55.1856 47.1935 55.44 47.2176C55.8015 47.2551 56.1175 47.314 56.3531 47.3917C56.5673 47.4613 56.7842 47.5363 57.0145 47.6193C57.8259 47.9031 58.6667 48.195 59.4727 48.278C60.5063 48.3824 61.315 48.1093 61.8827 47.4666C62.6672 46.5776 62.5307 45.7984 62.3807 45.4155C62.2415 45.0593 61.9844 44.7487 61.6095 44.481C61.8586 44.5158 62.1156 44.5586 62.3727 44.6095C62.4129 44.6175 62.4557 44.6229 62.4959 44.6256C63.9633 44.7327 65.1602 44.1596 65.6154 43.1233C66.0278 42.1835 65.7252 41.0722 64.8228 40.2233C64.4694 39.8913 63.9927 39.6717 63.4063 39.5727C63.9285 39.2272 64.2926 38.78 64.4399 38.2713C64.6568 37.5188 64.373 36.7637 63.6607 36.1987C63.1466 35.7917 62.5387 35.548 61.8532 35.4784C61.489 35.4409 61.1195 35.4543 60.75 35.5078C61.1302 35.05 61.1784 34.6028 61.1168 34.2493C60.9803 33.454 60.2064 32.8917 59.1005 32.7792C58.4926 32.7176 57.8527 32.8033 57.2903 33.0202C56.57 33.2987 55.9113 33.6682 55.3142 34.094C50.7995 39.4548 47.8433 46.3072 47.2274 54.0432C47.206 54.3136 47.1872 54.5814 47.1738 54.8465C48.3761 52.9614 49.6025 51.5154 50.6442 50.4577C52.5909 48.4869 54.2565 47.48 54.7974 47.1801Z" fill="#A6622B"/>
<path d="M48.8176 54.6588C48.8176 54.6588 48.5365 50.9635 44.1236 50.1521C39.4696 49.3006 37.1989 55.3309 39.4723 59.1681C41.7484 62.9999 46.9646 63.4069 48.7801 60.6381L48.8176 54.6588Z" fill="#C87E42"/>
<path d="M43.1006 51.6947C46.1908 51.384 48.2499 56.9323 43.9066 59.4092C45.939 55.7514 44.4395 54.3322 42.1152 55.9764C42.2331 54.7419 43.0524 54.0189 44.8787 54.2921C44.8599 52.6452 43.1006 51.6947 43.1006 51.6947Z" fill="#864E24"/>
<path d="M109.631 57.0208C109.631 57.0208 110.199 53.3603 114.66 52.8917C119.368 52.4017 121.164 58.5899 118.602 62.2397C116.036 65.8841 110.804 65.8868 109.211 62.9868L109.631 57.0208Z" fill="#C87E42"/>
<path d="M115.563 54.5089C112.507 53.9627 110.025 59.3342 114.162 62.1378C112.419 58.3354 114.023 57.034 116.211 58.8549C116.189 57.6151 115.429 56.8332 113.586 56.9617C113.734 55.3229 115.563 54.5089 115.563 54.5089Z" fill="#864E24"/>
<path d="M77.4377 54.1768C77.6707 56.0833 82.504 58.4585 80.5948 60.6917C79.4112 62.0734 76.8433 61.6128 76.9557 58.7396C77.02 57.0741 77.4377 54.1768 77.4377 54.1768Z" fill="#C55046"/>
<path d="M67.1544 65.9856C67.0821 67.8467 64.2035 69.2471 60.7278 69.1132C57.2494 68.9794 54.4887 67.3593 54.561 65.4983C54.6333 63.6346 57.5118 62.2368 60.9902 62.3707C64.4659 62.5019 67.2267 64.1219 67.1544 65.9856Z" fill="#C55046"/>
<path d="M102.922 65.9856C102.849 67.8467 99.9708 69.2471 96.4924 69.1132C93.0141 68.9794 90.2533 67.3593 90.3256 65.4983C90.3979 63.6346 93.2765 62.2368 96.7522 62.3707C100.233 62.5046 102.994 64.1219 102.922 65.9856Z" fill="#C55046"/>
<path d="M99.3173 44.3228C96.1522 42.8125 94.8348 46.3498 97.0359 46.7354C99.4003 47.1451 101.232 48.3501 101.567 48.1707C102.308 47.7798 101.098 45.1716 99.3173 44.3228Z" fill="#1E2C37"/>
<path d="M59.1881 44.3228C62.3532 42.8125 63.6706 46.3498 61.4695 46.7354C59.1051 47.1451 57.2735 48.3501 56.9388 48.1707C56.197 47.7798 57.4074 45.1716 59.1881 44.3228Z" fill="#1E2C37"/>
<path d="M67.7191 53.3335C68.9508 56.3781 67.62 59.7895 64.7468 60.9544C61.8736 62.1192 58.5398 60.5956 57.308 57.5483C56.0763 54.4983 57.4071 51.0896 60.2776 49.9221C63.1562 48.7626 66.4873 50.2862 67.7191 53.3335Z" fill="white"/>
<path d="M65.6865 55.4408C66.4469 57.3179 65.6276 59.4226 63.8549 60.143C62.0822 60.8606 60.0284 59.9207 59.2679 58.0436C58.5074 56.1638 59.3295 54.0591 61.1022 53.3415C62.8722 52.6239 64.926 53.5637 65.6865 55.4408Z" fill="black"/>
<path d="M61.916 55.7593C61.916 56.3511 61.4634 56.8304 60.9065 56.8304C60.3468 56.8304 59.897 56.3538 59.8916 55.7593C59.8916 55.1702 60.3441 54.6882 60.8984 54.6855C61.4608 54.6882 61.916 55.1675 61.916 55.7593Z" fill="white"/>
<path d="M64.9338 58.2176C64.9365 58.5871 64.6554 58.8816 64.3073 58.8843C63.9618 58.8843 63.6807 58.5871 63.6807 58.2176C63.686 57.8534 63.9618 57.5535 64.3073 57.5562C64.6527 57.5535 64.9338 57.8507 64.9338 58.2176Z" fill="white"/>
<path d="M55.4609 55.8211C55.4609 55.8211 62.008 55.1329 66.9484 49.9622C62.49 47.1131 55.7796 48.867 55.4609 55.8211Z" fill="#A6622B"/>
<path d="M55.4608 56.0779C55.3296 56.0779 55.2172 55.9788 55.2038 55.8476C55.1877 55.7057 55.2921 55.5798 55.4341 55.5638C55.4983 55.5557 61.949 54.8194 66.7609 49.7825C66.86 49.6781 67.0233 49.6754 67.1251 49.7745C67.2295 49.8736 67.2322 50.0369 67.1331 50.1387C62.1847 55.3174 55.5519 56.0699 55.4849 56.0752C55.4796 56.0779 55.4689 56.0779 55.4608 56.0779Z" fill="#B95238"/>
<path d="M90.4777 52.8538C89.3744 55.9466 90.8472 59.3018 93.7659 60.3461C96.6873 61.3878 99.9515 59.7276 101.057 56.6321C102.161 53.5339 100.688 50.1841 97.7718 49.1398C94.845 48.0981 91.5809 49.761 90.4777 52.8538Z" fill="white"/>
<path d="M92.4671 54.8808C91.7869 56.7901 92.6947 58.8573 94.4941 59.4999C96.2962 60.1426 98.3099 59.117 98.99 57.2105C99.6702 55.3012 98.7624 53.234 96.963 52.5887C95.1609 51.946 93.1472 52.9716 92.4671 54.8808Z" fill="black"/>
<path d="M96.2451 55.0388C96.2692 55.6306 96.7432 56.0912 97.3001 56.0671C97.8571 56.043 98.2882 55.5476 98.2668 54.9558C98.2427 54.3667 97.7714 53.9061 97.2144 53.9249C96.6575 53.9516 96.221 54.4497 96.2451 55.0388Z" fill="white"/>
<path d="M93.3347 57.6227C93.3481 57.9922 93.6426 58.2734 93.9907 58.2627C94.3361 58.2493 94.6039 57.9387 94.5905 57.5718C94.5691 57.2077 94.2826 56.9211 93.9345 56.9345C93.5864 56.9479 93.3186 57.2559 93.3347 57.6227Z" fill="white"/>
<path d="M102.72 55.2078C102.72 55.2078 96.1729 54.5196 91.2324 49.3489C95.7176 46.5506 102.176 48.2537 102.72 55.2078Z" fill="#A6622B"/>
<path d="M102.72 55.4673C102.851 55.4673 102.964 55.3682 102.977 55.2343C102.993 55.0924 102.889 54.9666 102.747 54.9505C102.683 54.9425 96.232 54.2061 91.4201 49.1693C91.3211 49.0675 91.1577 49.0621 91.056 49.1612C90.9515 49.2603 90.9489 49.4236 91.0479 49.5254C95.9964 54.7041 102.629 55.4566 102.696 55.4619C102.701 55.4646 102.712 55.4673 102.72 55.4673Z" fill="#B95238"/>
<path d="M83.4404 72.7602C83.502 74.8783 81.898 76.6429 79.8576 76.7018C77.8171 76.7607 76.1141 75.0925 76.0525 72.9744C75.9909 70.8563 77.5949 69.0917 79.6353 69.0328C81.6757 68.9739 83.3788 70.6421 83.4404 72.7602Z" fill="#542425"/>
<path d="M82.8113 75.0147C82.1231 73.9811 80.961 73.317 79.6623 73.3545C78.4252 73.3893 77.3487 74.0534 76.7061 75.0415C77.3942 76.0751 78.5564 76.7392 79.8551 76.7017C81.0949 76.6669 82.1713 76.0028 82.8113 75.0147Z" fill="#C55046"/>
<path d="M80.9399 1.7521C77.981 -6.69885 71.126 -9.15166 69.6559 -0.0553789C64.7503 -5.50726 61.9949 -2.96876 62.7554 1.11479C57.7427 -10.3299 37.7694 -6.6935 39.3519 3.0267C32.8129 -0.103578 28.89 11.1429 32.0685 15.4514C26.7746 11.1108 24.8118 14.6695 29.1845 18.164C20.838 17.3232 11.5597 32.9049 24.1906 39.3074C19.8955 41.1658 21.1487 46.631 25.0823 46.1919C17.8497 51.1055 28.1938 55.9549 32.8638 52.5703C34.2026 57.8026 41.8851 53.1085 43.2025 50.8619C46.215 57.9873 52.0766 43.1098 49.7068 39.2619C55.7611 42.9839 60.2919 37.9659 59.0762 35.264C63.5855 42.502 72.4086 35.7273 68.8901 32.4551C73.1557 35.2051 74.4651 30.0799 71.4125 28.8803C75.3863 30.1924 78.4443 25.8785 74.4651 22.842C77.9757 23.2356 87.7414 21.0586 85.7465 28.2591C83.7542 35.4568 91.4393 29.7452 94.2483 25.8812C91.351 38.721 101.186 37.3687 105.149 35.2292C99.4752 43.1285 108.264 45.5706 111.935 41.9932C112.642 47.3995 121.015 50.9288 122.418 43.8087C128.981 48.7063 134.112 43.7123 130.071 37.6633C138.075 39.5029 137.917 28.0877 129.972 26.6149C136.468 24.9279 133.276 19.0958 128.968 20.906C133.041 16.6939 127.846 7.58422 121.636 9.55771C127.83 2.40547 120.244 2.27158 116.623 3.95052C118.391 -1.40496 107.093 -8.39386 102.573 0.654222C99.1619 -4.68787 95.4318 -1.51207 94.9793 1.59679C91.5598 -6.6212 82.6965 -7.63071 80.9399 1.7521Z" fill="#1E2C37"/>
<path d="M99.8668 32.7203C90.3769 32.3668 82.3705 39.8029 82.017 49.2928C82.0009 49.7266 82.0063 50.1577 82.0224 50.5835L76.8168 50.388C76.865 49.9623 76.9025 49.5338 76.9186 49.1C77.272 39.6074 69.836 31.601 60.346 31.2502C50.8561 30.8994 42.847 38.3328 42.4935 47.8227C42.1401 57.3127 49.5762 65.3218 59.0661 65.6726C67.1877 65.9751 74.2167 60.5715 76.3 53.0577L82.3383 53.2827C83.8539 60.9276 90.4653 66.8374 98.5869 67.14C108.077 67.4934 116.086 60.06 116.437 50.5674C116.79 41.0775 109.357 33.0737 99.8668 32.7203ZM98.6886 64.4569C90.6768 64.1596 84.4055 57.401 84.7028 49.3919C85 41.3828 91.7586 35.1088 99.7677 35.4061C107.777 35.7033 114.051 42.4619 113.754 50.471C113.456 58.4802 106.698 64.7541 98.6886 64.4569ZM59.1678 62.9868C51.156 62.6896 44.8848 55.9309 45.182 47.9218C45.4792 39.9127 52.2378 33.6387 60.247 33.936C68.2561 34.2332 74.53 40.9918 74.2328 49.0009C73.9329 57.0101 67.177 63.284 59.1678 62.9868Z" fill="#FFCD03"/>
<path d="M24.5071 59.1293C19.3133 64.5041 27.1991 73.7247 33.9014 72.3902C29.3899 83.3854 36.3567 80.3551 39.7125 78.0245C40.8357 88.3432 48.1878 88.3478 50.8613 81.7868C53.5859 90.3216 61.5042 89.8954 66.2385 83.0379C66.3174 91.5263 79.1603 87.8196 79.2717 82.9081C80.0329 90.039 87.139 92.1101 91.7155 85.8272C91.9476 90.1548 103.779 89.1077 102.423 85.0256C106.582 88.5795 112.458 85.9616 111.251 81.1196C113.79 82.6811 117.601 79.8037 114.839 75.0684C120.91 75.4993 126.768 68.9244 123.918 65.1111C128.838 65.2269 136.051 58.5363 126.851 56.1964C133.363 55.8859 131.795 48.0137 126.759 49.2277C132.421 46.165 131.414 36.7221 122.92 40.3825C127.691 30.694 121.504 24.6103 111.502 28.3541C105.858 18.2764 71.8036 10.6682 55.6745 27.0011C39.3644 33.1589 24.5071 59.1293 24.5071 59.1293Z" fill="#000D18"/>
<path d="M47.6872 59.0556C46.4386 76.1854 58.9984 88.5613 75.522 89.7614C92.0457 90.9614 106.267 80.5316 107.516 63.4018C108.764 46.272 96.3437 32.0334 79.82 30.8334C63.2964 29.6287 48.9404 41.9258 47.6872 59.0556Z" fill="#C77E42"/>
<path d="M65.9282 69.9295C65.7982 71.6902 63.0226 72.9227 59.7272 72.6817C56.4317 72.4408 53.865 70.8191 53.995 69.0584C54.1249 67.2977 56.9005 66.0605 60.196 66.3015C63.4914 66.5471 66.0581 68.1688 65.9282 69.9295Z" fill="#C45046"/>
<path d="M100.772 71.9921C100.642 73.7528 97.8664 74.9853 94.5709 74.749C91.2755 74.508 88.7087 72.8863 88.8387 71.1256C88.9687 69.3649 91.7443 68.1324 95.0397 68.3733C98.3351 68.605 100.902 70.2267 100.772 71.9921Z" fill="#C45046"/>
<path d="M88.4981 59.4257C87.1892 62.229 88.2753 65.5048 90.9256 66.7419C93.5805 67.9744 96.7924 66.7049 98.1013 63.9016C99.4149 61.0938 98.3241 57.8226 95.6738 56.5854C93.0236 55.3483 89.8117 56.6179 88.4981 59.4257Z" fill="white"/>
<path d="M90.3417 60.2832C89.5341 62.0115 90.2025 64.0316 91.8363 64.7962C93.4701 65.556 95.452 64.773 96.2642 63.0447C97.0718 61.3118 96.4035 59.2963 94.7697 58.5318C93.1312 57.7672 91.1493 58.5503 90.3417 60.2832Z" fill="#231F20"/>
<path d="M93.8783 60.7645C93.8505 61.3205 94.2543 61.7931 94.7788 61.8209C95.3032 61.8487 95.7535 61.4224 95.786 60.8618C95.8138 60.3057 95.4146 59.8331 94.8902 59.8007C94.361 59.7775 93.9062 60.2084 93.8783 60.7645Z" fill="white"/>
<path d="M90.917 62.9282C90.8984 63.2757 91.1491 63.5676 91.474 63.5862C91.7989 63.6047 92.0773 63.336 92.0959 62.9931C92.1098 62.6502 91.8638 62.3537 91.5389 62.3398C91.214 62.3166 90.9309 62.5853 90.917 62.9282Z" fill="white"/>
<path d="M98.7613 58.7134C98.7613 58.7134 94.2337 54.0681 88.6375 57.9205C93.9544 51.4223 98.7613 58.7134 98.7613 58.7134Z" fill="#744431"/>
<path d="M93.2415 47.5209C95.1533 45.1011 100.184 47.475 99.9678 52.8581C98.6802 49.456 93.2415 47.5209 93.2415 47.5209Z" fill="#1E2C37"/>
<path d="M61.8394 48.1075C60.6451 45.2664 55.1604 46.2121 53.9311 51.4555C56.0807 48.5198 61.8394 48.1075 61.8394 48.1075Z" fill="#1E2C37"/>
<path d="M81.2728 6.58139C78.7989 -2.35187 71.8738 -5.36823 69.7202 3.92644C65.023 -2.04606 61.9921 0.386491 62.4934 4.65388C58.1072 -7.51351 38.9426 -1.14717 39.9034 9.00468C33.3543 5.31647 29.0934 14.3934 32.0825 19.0639C26.9026 14.2127 24.4612 20.6207 28.7453 24.536C20.1679 23.0857 11.8272 32.7557 24.4566 40.2479C19.8801 41.8696 20.5299 48.9078 24.633 48.7271C16.8028 53.3003 22.9156 58.9068 27.9841 55.7329C29.0052 61.2327 37.281 56.919 38.8034 54.6857C41.4211 62.2567 48.5272 47.2954 46.3411 43.1531C52.3472 47.4205 59.3047 41.0078 58.2372 38.1351C62.4006 45.9239 70.0822 41.0819 66.6661 37.4586C70.8898 40.5954 72.6025 35.3921 69.5252 33.9418C73.5447 35.5728 77.0119 31.3286 73.1038 27.9137C76.7102 28.5624 86.9632 26.9963 84.4011 34.294C81.839 41.5916 90.189 36.2261 93.3638 32.4313C89.4696 45.493 99.7458 44.7794 103.997 42.8473C97.5736 50.6129 106.499 53.7451 110.551 50.3071C110.904 55.9414 119.328 60.1717 121.273 52.9111C127.725 58.4295 134.357 53.9166 130.598 47.3834C138.753 49.8391 138.405 37.7459 130.287 35.6747C137.128 34.382 134.232 28.1361 129.646 29.7069C134.158 25.6387 129.414 15.8668 122.851 17.4746C129.758 10.5152 121.918 9.8526 118.056 11.3353C120.261 5.92345 109.052 -2.0785 103.747 6.95207C100.591 1.19734 96.5061 4.21834 95.8238 7.39688C92.8439 -1.33251 83.742 -2.99128 81.2728 6.58139Z" fill="#1E2C37"/>
<path d="M98.6045 37.0877C88.7599 36.768 80.4888 44.5058 80.1685 54.3333C80.1546 54.7827 80.1639 55.2276 80.1825 55.6724L74.7798 55.4963C74.8262 55.0561 74.8633 54.6113 74.8773 54.1665C75.1975 44.339 67.4463 36.0822 57.6017 35.7625C47.7572 35.4428 39.4861 43.176 39.1658 53.0081C38.8456 62.8357 46.5968 71.0924 56.4414 71.4121C64.8656 71.6855 72.1342 66.0559 74.2553 58.2671L80.5167 58.471C82.1272 66.3802 89.0152 72.4686 97.4394 72.7419C107.284 73.0616 115.555 65.3238 115.875 55.4963C116.2 45.6595 108.454 37.4074 98.6045 37.0877ZM97.5369 69.9526C89.2287 69.6792 82.6889 62.7152 82.9581 54.4213C83.2273 46.1275 90.208 39.599 98.5163 39.8677C106.824 40.1365 113.364 47.1051 113.095 55.399C112.826 63.6928 105.845 70.2214 97.5369 69.9526ZM56.5388 68.6228C48.2306 68.3541 41.6908 61.3854 41.96 53.0915C42.2292 44.7977 49.2053 38.2692 57.5182 38.5379C65.8264 38.8113 72.3662 45.7754 72.097 54.0692C71.8278 62.363 64.8471 68.8916 56.5388 68.6228Z" fill="#FFCC02"/>
<path d="M57.6485 58.5271C56.3396 61.3303 57.4257 64.6062 60.076 65.8433C62.7309 67.0758 65.9428 65.8062 67.2517 63.003C68.5653 60.1951 67.4745 56.9239 64.8242 55.6868C62.1693 54.4497 58.9574 55.7239 57.6485 58.5271Z" fill="white"/>
<path d="M59.4872 59.3843C58.6796 61.1125 59.348 63.1327 60.9818 63.8972C62.6156 64.6571 64.5975 63.8741 65.4097 62.1458C66.2174 60.4129 65.549 58.3973 63.9152 57.6328C62.2768 56.8683 60.2948 57.6514 59.4872 59.3843Z" fill="#231F20"/>
<path d="M63.0219 59.8665C62.994 60.4225 63.3978 60.8951 63.9223 60.9229C64.4468 60.9507 64.897 60.5244 64.9295 59.9638C64.9574 59.4078 64.5582 58.9352 64.0337 58.9027C63.5046 58.8796 63.0544 59.3105 63.0219 59.8665Z" fill="white"/>
<path d="M60.0605 62.0298C60.042 62.3773 60.2926 62.6692 60.6175 62.6877C60.9424 62.7063 61.2209 62.4375 61.2395 62.0947C61.2534 61.7518 61.0074 61.4552 60.6825 61.4413C60.3576 61.4182 60.0791 61.6869 60.0605 62.0298Z" fill="white"/>
<path d="M67.6026 58.128C67.6026 58.128 63.0762 53.4813 57.479 57.3323C62.7971 50.8309 67.6026 58.128 67.6026 58.128Z" fill="#744431"/>
</g>
<defs>
<filter id="filter0_iiii_1342_573" x="0" y="0" width="359" height="78" filterUnits="userSpaceOnUse" color-interpolation-filters="sRGB">
<feFlood flood-opacity="0" result="BackgroundImageFix"/>
<feBlend mode="normal" in="SourceGraphic" in2="BackgroundImageFix" result="shape"/>
<feColorMatrix in="SourceAlpha" type="matrix" values="0 0 0 0 0 0 0 0 0 0 0 0 0 0 0 0 0 0 127 0" result="hardAlpha"/>
<feOffset dy="4"/>
<feGaussianBlur stdDeviation="2"/>
<feComposite in2="hardAlpha" operator="arithmetic" k2="-1" k3="1"/>
<feColorMatrix type="matrix" values="0 0 0 0 0 0 0 0 0 0 0 0 0 0 0 0 0 0 0.25 0"/>
<feBlend mode="normal" in2="shape" result="effect1_innerShadow_1342_573"/>
<feColorMatrix in="SourceAlpha" type="matrix" values="0 0 0 0 0 0 0 0 0 0 0 0 0 0 0 0 0 0 127 0" result="hardAlpha"/>
<feOffset dy="4"/>
<feGaussianBlur stdDeviation="2"/>
<feComposite in2="hardAlpha" operator="arithmetic" k2="-1" k3="1"/>
<feColorMatrix type="matrix" values="0 0 0 0 0 0 0 0 0 0 0 0 0 0 0 0 0 0 0.25 0"/>
<feBlend mode="normal" in2="effect1_innerShadow_1342_573" result="effect2_innerShadow_1342_573"/>
<feColorMatrix in="SourceAlpha" type="matrix" values="0 0 0 0 0 0 0 0 0 0 0 0 0 0 0 0 0 0 127 0" result="hardAlpha"/>
<feOffset dy="4"/>
<feGaussianBlur stdDeviation="2"/>
<feComposite in2="hardAlpha" operator="arithmetic" k2="-1" k3="1"/>
<feColorMatrix type="matrix" values="0 0 0 0 0 0 0 0 0 0 0 0 0 0 0 0 0 0 0.25 0"/>
<feBlend mode="normal" in2="effect2_innerShadow_1342_573" result="effect3_innerShadow_1342_573"/>
<feColorMatrix in="SourceAlpha" type="matrix" values="0 0 0 0 0 0 0 0 0 0 0 0 0 0 0 0 0 0 127 0" result="hardAlpha"/>
<feOffset dy="4"/>
<feGaussianBlur stdDeviation="2"/>
<feComposite in2="hardAlpha" operator="arithmetic" k2="-1" k3="1"/>
<feColorMatrix type="matrix" values="0 0 0 0 0 0 0 0 0 0 0 0 0 0 0 0 0 0 0.25 0"/>
<feBlend mode="normal" in2="effect3_innerShadow_1342_573" result="effect4_innerShadow_1342_573"/>
</filter>
<linearGradient id="paint0_linear_1342_573" x1="-134" y1="-51.5" x2="229.5" y2="219" gradientUnits="userSpaceOnUse">
<stop stop-color="#77838F"/>
<stop offset="0.964078" stop-color="#424242"/>
</linearGradient>
<clipPath id="clip0_1342_573">
<rect width="359" height="74" fill="white"/>
</clipPath>
</defs>
</svg>
