<svg width="420" height="397" viewBox="0 0 420 397" fill="none" xmlns="http://www.w3.org/2000/svg">
<path d="M49.8966 259.646C34.5212 277.011 60.1876 304.576 80.7642 299.543C68.253 334.264 89.4355 323.928 99.5078 316.246C104.359 348.113 127.147 347.145 134.545 326.433C144.124 352.554 168.59 350.185 182.34 328.279C183.716 354.604 223.002 341.392 222.702 326.139C226.011 348.157 248.295 353.642 261.633 333.54C262.933 346.936 299.437 342.113 294.696 329.636C308.051 340.103 325.9 331.199 321.525 316.339C329.603 320.844 341.012 311.414 331.832 297.078C350.695 297.602 367.964 276.417 358.63 264.978C373.891 264.68 395.332 242.958 366.526 236.925C386.662 235.091 380.749 210.88 365.306 215.317C382.437 205.06 378.066 175.889 352.23 188.382C365.722 157.683 345.746 139.635 315.255 152.575C296.428 122.062 189.931 102.97 142.135 155.81C92.4573 177.07 49.8966 259.646 49.8966 259.646Z" fill="#000D19"/>
<path d="M114.605 255.347C116.726 312.71 162.9 349.246 218.136 347.201C273.369 345.164 316.722 305.326 314.602 247.954C312.489 190.593 266.078 147.814 210.844 149.851C155.608 151.895 112.489 197.994 114.605 255.347Z" fill="#C87E42"/>
<path d="M225.241 277.922C222.617 276.719 218.4 280.966 218.4 280.966L227.282 281.282C227.282 281.282 227.865 279.122 225.241 277.922Z" fill="#744431"/>
<path d="M212.521 277.74C209.897 276.443 207.962 280.834 207.962 280.834L216.636 281.141C216.636 281.144 215.148 279.034 212.521 277.74Z" fill="#744431"/>
<path d="M118.611 255.638C118.611 255.638 116.831 244.031 102.707 242.531C87.7963 240.947 82.0703 260.541 90.1739 272.124C98.2752 283.681 114.855 283.721 119.921 274.539L118.611 255.638Z" fill="#C87E42"/>
<path d="M99.845 247.64C109.531 245.925 117.357 262.954 104.235 271.809C109.782 259.775 104.706 255.644 97.7519 261.399C97.8302 257.465 100.239 254.993 106.081 255.42C105.631 250.233 99.845 247.64 99.845 247.64Z" fill="#864E24"/>
<path d="M311.257 248.559C311.257 248.559 312.167 236.861 326.149 234.312C340.898 231.638 348.058 250.755 340.837 262.896C333.603 275.016 317.078 276.284 311.351 267.502L311.257 248.559Z" fill="#C87E42"/>
<path d="M329.384 239.2C319.604 238.198 313.042 255.763 326.789 263.631C320.371 252.041 325.13 247.552 332.475 252.775C332.105 248.865 329.524 246.572 323.734 247.425C323.814 242.208 329.384 239.2 329.384 239.2Z" fill="#864E24"/>
<path d="M176.335 282.785C176.549 288.686 167.795 293.79 156.778 294.198C145.761 294.605 136.653 290.15 136.438 284.249C136.223 278.348 144.972 273.234 155.995 272.836C167.011 272.429 176.12 276.884 176.335 282.785Z" fill="#C55046"/>
<path d="M301.691 272.759C301.906 278.66 293.158 283.775 282.135 284.172C271.118 284.579 262.009 280.124 261.794 274.223C261.58 268.322 270.334 263.218 281.351 262.811C292.366 262.411 301.466 266.864 301.691 272.759Z" fill="#C55046"/>
<path d="M260.155 220.538C262.419 210.49 280.984 210.383 288.097 226.919C279.309 218.519 260.155 220.538 260.155 220.538Z" fill="#1E2C37"/>
<path d="M169.086 226.471C165.542 216.801 147.119 219.096 142.211 236.416C149.828 226.95 169.086 226.471 169.086 226.471Z" fill="#1E2C37"/>
<path d="M263.529 240.314C250.964 241.949 247.37 257.329 247.28 256.642C245.976 246.578 253.016 237.335 262.98 236.042C272.936 234.748 282.101 241.892 283.412 251.959C283.496 252.635 276.98 238.566 263.529 240.314Z" fill="#542425"/>
<path d="M165.799 247.871C153.235 249.507 149.64 264.886 149.55 264.2C148.247 254.135 155.286 244.892 165.251 243.6C175.207 242.305 184.371 249.45 185.683 259.516C185.765 260.201 179.249 246.132 165.799 247.871Z" fill="#542425"/>
<path d="M224.635 323.072C202.255 325.203 181.344 312.679 174.906 293.294C174.716 292.725 175.025 292.109 175.592 291.928C176.161 291.738 176.777 292.047 176.958 292.614C183.079 311.045 203.042 322.948 224.422 320.92C244.894 318.981 261.711 304.838 265.324 286.539C265.439 285.955 266.011 285.571 266.594 285.687C267.177 285.802 267.561 286.374 267.446 286.957C263.66 306.189 246.05 321.043 224.635 323.072Z" fill="#84451D"/>
<path d="M208.706 80.2983C197.902 53.6049 175.513 46.7656 172.179 76.2097C155.586 59.4444 147.12 68.0306 150.185 81.0221C132.336 45.023 75.5837 71.4769 82.1476 102.457C60.6689 93.402 50.7691 122.917 61.6331 136.27C43.9639 123.134 38.717 143.783 53.3009 154.335C26.3695 152.915 4.11676 185.712 45.6721 204.341C32.1529 210.964 36.6529 232.457 49.2211 230.442C26.7392 247.329 47.5399 262.458 62.0348 250.87C67.1371 267.476 91.0937 251.23 94.9812 243.8C105.741 266.229 122.301 217.542 114.094 205.544C134.107 216.582 153.268 194.324 148.949 185.84C164.542 208.397 186.48 190.722 174.669 180.754C188.792 188.935 192.211 172.273 182.222 168.889C195.189 172.491 204.356 158.173 191.106 149.026C202.441 149.75 233.472 141.266 228.168 164.702C222.866 188.13 246.68 168.606 255.108 155.765C247.762 197.457 279.154 191.604 291.561 184.126C274.542 210.369 303.147 216.867 314.395 204.818C317.486 222.078 344.935 232.132 348.346 209.043C370.182 223.776 389.007 207.498 375.109 188.684C401.096 193.376 395.731 156.182 369.982 152.665C390.594 146.25 379.447 128.007 365.885 134.478C378.326 120.327 360.244 91.8563 340.607 99.1467C359.41 75.2241 335.02 75.963 323.652 81.9034C328.519 64.423 291.148 43.7086 278.017 73.4666C266.241 56.8258 254.744 67.6001 253.773 77.6527C241.539 51.773 212.915 49.8792 208.706 80.2983Z" fill="#1E2C37"/>
<path d="M270.595 168.687C240.158 171.191 217.437 197.999 219.95 228.438C220.063 229.83 220.244 231.203 220.464 232.559L203.764 233.926C203.753 232.55 203.706 231.173 203.593 229.781C201.08 199.342 174.28 176.623 143.843 179.128C113.404 181.64 90.6855 208.44 93.1898 238.877C95.6941 269.314 122.502 292.035 152.939 289.53C178.992 287.379 199.363 267.435 203.142 242.654L222.503 241.057C230.28 264.888 253.65 281.226 279.693 279.081C310.13 276.577 332.851 249.769 330.346 219.332C327.834 188.893 301.032 166.182 270.595 168.687ZM278.992 270.474C253.302 272.59 230.684 253.413 228.567 227.731C226.449 202.049 245.622 179.413 271.31 177.306C297 175.19 319.618 194.367 321.736 220.049C323.851 245.739 304.674 268.357 278.992 270.474ZM152.23 280.922C126.54 283.037 103.912 263.866 101.805 238.178C99.6872 212.496 118.858 189.868 144.55 187.745C170.238 185.637 192.858 204.806 194.974 230.496C197.099 256.18 177.922 278.798 152.23 280.922Z" fill="#FFCD03"/>
</svg>
