<svg width="304" height="102" viewBox="0 0 304 102" fill="none" xmlns="http://www.w3.org/2000/svg">
<g clip-path="url(#clip0_1364_404)">
<path d="M18.0503 70.1075C13.2 70.1075 9.48561 68.7261 6.907 65.9633C4.38978 63.2005 3.13117 59.3018 3.13117 54.2674V19.6403C3.13117 14.6059 4.38978 10.7073 6.907 7.94449C9.48561 5.18169 13.2 3.80029 18.0503 3.80029C22.9005 3.80029 26.5843 5.18169 29.1015 7.94449C31.6801 10.7073 32.9694 14.6059 32.9694 19.6403V26.4552H23.3917V18.9957C23.3917 15.005 21.7033 13.0096 18.3266 13.0096C14.9498 13.0096 13.2614 15.005 13.2614 18.9957V55.0042C13.2614 58.9335 14.9498 60.8981 18.3266 60.8981C21.7033 60.8981 23.3917 58.9335 23.3917 55.0042V45.1502H32.9694V54.2674C32.9694 59.3018 31.6801 63.2005 29.1015 65.9633C26.5843 68.7261 22.9005 70.1075 18.0503 70.1075ZM46.8582 4.72123H60.5801L71.0787 69.1865H60.9485L59.1066 56.3856V56.5697H47.595L45.7531 69.1865H36.3596L46.8582 4.72123ZM57.9094 47.8209L53.3968 15.9566H53.2126L48.7922 47.8209H57.9094ZM75.9935 4.72123H90.4522L96.8987 50.86H97.0829L103.529 4.72123H117.988V69.1865H108.41V20.3771H108.226L100.859 69.1865H92.3861L85.0186 20.3771H84.8345V69.1865H75.9935V4.72123Z" fill="#6B6B6B"/>
<path d="M138.717 70.1075C133.805 70.1075 130.091 68.7261 127.574 65.9633C125.056 63.1391 123.798 59.1177 123.798 53.899V50.2153H133.376V54.6358C133.376 58.8107 135.125 60.8981 138.625 60.8981C140.344 60.8981 141.633 60.407 142.493 59.4246C143.414 58.3809 143.874 56.7232 143.874 54.4516C143.874 51.7502 143.26 49.3865 142.032 47.3604C140.804 45.273 138.533 42.7864 135.217 39.9009C131.042 36.2171 128.126 32.9018 126.469 29.9548C124.811 26.9464 123.982 23.5697 123.982 19.8245C123.982 14.7287 125.271 10.7994 127.85 8.03658C130.429 5.21239 134.174 3.80029 139.085 3.80029C143.936 3.80029 147.589 5.21239 150.044 8.03658C152.562 10.7994 153.82 14.7901 153.82 20.0087V22.6794H144.243V19.3641C144.243 17.1538 143.813 15.5575 142.953 14.5752C142.094 13.5315 140.835 13.0096 139.177 13.0096C135.801 13.0096 134.112 15.0664 134.112 19.1799C134.112 21.5129 134.726 23.6924 135.954 25.7185C137.243 27.7445 139.546 30.2004 142.861 33.086C147.097 36.7697 150.014 40.1157 151.61 43.1241C153.206 46.1325 154.004 49.6627 154.004 53.7149C154.004 58.9949 152.684 63.047 150.044 65.8712C147.466 68.6954 143.69 70.1075 138.717 70.1075ZM189.651 75.1726C185.046 75.1726 182.222 73.1158 181.178 69.0023C179.275 69.7391 177.034 70.1075 174.456 70.1075C169.483 70.1075 165.676 68.6954 163.036 65.8712C160.396 63.047 159.076 59.0563 159.076 53.899V20.0087C159.076 14.8515 160.396 10.8608 163.036 8.03658C165.676 5.21239 169.483 3.80029 174.456 3.80029C179.429 3.80029 183.235 5.21239 185.875 8.03658C188.515 10.8608 189.835 14.8515 189.835 20.0087V53.899C189.835 58.1967 188.884 61.727 186.98 64.4898C187.349 65.1037 187.809 65.5028 188.362 65.687C188.914 65.8712 189.712 65.9633 190.756 65.9633H192.322V75.1726H189.651ZM174.456 60.8981C177.955 60.8981 179.705 58.78 179.705 54.5437V19.3641C179.705 15.1278 177.955 13.0096 174.456 13.0096C170.956 13.0096 169.206 15.1278 169.206 19.3641V54.5437C169.206 58.78 170.956 60.8981 174.456 60.8981ZM211.421 70.1075C206.509 70.1075 202.764 68.7261 200.186 65.9633C197.607 63.1391 196.318 59.1177 196.318 53.899V4.72123H206.448V54.6358C206.448 56.846 206.878 58.4423 207.737 59.4246C208.658 60.407 209.947 60.8981 211.605 60.8981C213.263 60.8981 214.521 60.407 215.381 59.4246C216.302 58.4423 216.762 56.846 216.762 54.6358V4.72123H226.524V53.899C226.524 59.1177 225.235 63.1391 222.656 65.9633C220.078 68.7261 216.333 70.1075 211.421 70.1075ZM241.387 4.72123H255.109L265.608 69.1865H255.478L253.636 56.3856V56.5697H242.124L240.282 69.1865H230.889L241.387 4.72123ZM252.438 47.8209L247.926 15.9566H247.742L243.321 47.8209H252.438ZM270.523 4.72123H285.994C291.029 4.72123 294.804 6.07193 297.322 8.77333C299.839 11.4747 301.098 15.4347 301.098 20.6534V53.2544C301.098 58.473 299.839 62.433 297.322 65.1344C294.804 67.8358 291.029 69.1865 285.994 69.1865H270.523V4.72123ZM285.81 59.9772C287.468 59.9772 288.726 59.486 289.586 58.5037C290.507 57.5214 290.967 55.9251 290.967 53.7149V20.1929C290.967 17.9827 290.507 16.3864 289.586 15.404C288.726 14.4217 287.468 13.9306 285.81 13.9306H280.653V59.9772H285.81Z" fill="#FD397A"/>
<path d="M200.888 76.6935C200.888 76.7774 200.884 76.8503 200.875 76.9121C200.866 76.974 200.851 77.0248 200.829 77.0645C200.811 77.0998 200.787 77.1263 200.756 77.144C200.729 77.1617 200.698 77.1705 200.663 77.1705H198.251V84.6035C198.251 84.6388 198.243 84.6698 198.225 84.6963C198.207 84.7228 198.176 84.7448 198.132 84.7625C198.088 84.7758 198.028 84.7868 197.953 84.7956C197.883 84.8089 197.792 84.8155 197.682 84.8155C197.576 84.8155 197.485 84.8089 197.41 84.7956C197.335 84.7868 197.275 84.7758 197.231 84.7625C197.187 84.7448 197.156 84.7228 197.139 84.6963C197.121 84.6698 197.112 84.6388 197.112 84.6035V77.1705H194.701C194.665 77.1705 194.632 77.1617 194.601 77.144C194.575 77.1263 194.553 77.0998 194.535 77.0645C194.517 77.0248 194.502 76.974 194.489 76.9121C194.48 76.8503 194.475 76.7774 194.475 76.6935C194.475 76.6096 194.48 76.5367 194.489 76.4749C194.502 76.4087 194.517 76.3557 194.535 76.3159C194.553 76.2762 194.575 76.2475 194.601 76.2298C194.632 76.2121 194.665 76.2033 194.701 76.2033H200.663C200.698 76.2033 200.729 76.2121 200.756 76.2298C200.787 76.2475 200.811 76.2762 200.829 76.3159C200.851 76.3557 200.866 76.4087 200.875 76.4749C200.884 76.5367 200.888 76.6096 200.888 76.6935ZM206.897 84.3054C206.897 84.3849 206.892 84.4556 206.884 84.5174C206.875 84.5748 206.859 84.6234 206.837 84.6631C206.815 84.7029 206.789 84.7316 206.758 84.7493C206.731 84.7669 206.7 84.7758 206.665 84.7758H202.551C202.449 84.7758 202.352 84.7426 202.259 84.6764C202.171 84.6057 202.127 84.4843 202.127 84.312V76.667C202.127 76.4948 202.171 76.3755 202.259 76.3093C202.352 76.2386 202.449 76.2033 202.551 76.2033H206.619C206.654 76.2033 206.685 76.2121 206.711 76.2298C206.742 76.2475 206.767 76.2762 206.784 76.3159C206.802 76.3557 206.815 76.4065 206.824 76.4683C206.837 76.5257 206.844 76.5986 206.844 76.6869C206.844 76.7664 206.837 76.8371 206.824 76.8989C206.815 76.9563 206.802 77.0049 206.784 77.0446C206.767 77.08 206.742 77.1065 206.711 77.1241C206.685 77.1418 206.654 77.1506 206.619 77.1506H203.266V79.8403H206.142C206.177 79.8403 206.208 79.8513 206.234 79.8734C206.265 79.8911 206.29 79.9176 206.307 79.9529C206.329 79.9883 206.345 80.0368 206.354 80.0987C206.362 80.1605 206.367 80.2334 206.367 80.3173C206.367 80.3968 206.362 80.4652 206.354 80.5226C206.345 80.5801 206.329 80.6264 206.307 80.6618C206.29 80.6971 206.265 80.7236 206.234 80.7413C206.208 80.7545 206.177 80.7611 206.142 80.7611H203.266V83.8284H206.665C206.7 83.8284 206.731 83.8372 206.758 83.8549C206.789 83.8726 206.815 83.9013 206.837 83.941C206.859 83.9764 206.875 84.0249 206.884 84.0868C206.892 84.1442 206.897 84.2171 206.897 84.3054ZM214.317 83.5634C214.317 83.6341 214.314 83.6959 214.31 83.7489C214.306 83.8019 214.297 83.8483 214.283 83.888C214.275 83.9278 214.261 83.9631 214.244 83.994C214.226 84.0249 214.195 84.0625 214.151 84.1067C214.107 84.1508 214.014 84.2193 213.873 84.312C213.731 84.4004 213.555 84.4887 213.343 84.577C213.135 84.6609 212.894 84.7316 212.621 84.789C212.351 84.8508 212.055 84.8818 211.733 84.8818C211.176 84.8818 210.673 84.789 210.222 84.6035C209.776 84.418 209.394 84.1442 209.076 83.782C208.763 83.4199 208.52 82.9738 208.348 82.4438C208.18 81.9094 208.096 81.2955 208.096 80.6021C208.096 79.8911 208.186 79.2573 208.368 78.7008C208.553 78.1444 208.811 77.674 209.143 77.2898C209.474 76.9011 209.869 76.6052 210.328 76.402C210.792 76.1989 211.304 76.0973 211.865 76.0973C212.113 76.0973 212.353 76.1216 212.587 76.1702C212.822 76.2143 213.038 76.2717 213.237 76.3424C213.435 76.4131 213.612 76.4948 213.767 76.5875C213.921 76.6803 214.027 76.7576 214.085 76.8194C214.147 76.8768 214.186 76.921 214.204 76.9519C214.222 76.9828 214.235 77.0203 214.244 77.0645C214.257 77.1043 214.266 77.1528 214.27 77.2103C214.279 77.2677 214.283 77.3361 214.283 77.4156C214.283 77.504 214.279 77.579 214.27 77.6409C214.261 77.7027 214.248 77.7557 214.23 77.7999C214.213 77.8396 214.191 77.8705 214.164 77.8926C214.142 77.9103 214.113 77.9191 214.078 77.9191C214.016 77.9191 213.93 77.8772 213.82 77.7932C213.709 77.7049 213.566 77.61 213.389 77.5084C213.217 77.4024 213.005 77.3074 212.753 77.2235C212.506 77.1352 212.208 77.091 211.859 77.091C211.479 77.091 211.132 77.1683 210.819 77.3229C210.51 77.473 210.245 77.6961 210.024 77.992C209.803 78.2879 209.631 78.65 209.507 79.0784C209.388 79.5024 209.328 79.9883 209.328 80.5359C209.328 81.0791 209.386 81.5605 209.5 81.9801C209.62 82.3953 209.787 82.7442 210.004 83.0268C210.225 83.3051 210.494 83.517 210.812 83.6628C211.13 83.8041 211.49 83.8748 211.892 83.8748C212.232 83.8748 212.528 83.8328 212.78 83.7489C213.036 83.665 213.252 83.5723 213.429 83.4707C213.61 83.3647 213.758 83.2697 213.873 83.1858C213.988 83.1019 214.078 83.0599 214.144 83.0599C214.175 83.0599 214.202 83.0666 214.224 83.0798C214.246 83.0931 214.264 83.1196 214.277 83.1593C214.29 83.1946 214.299 83.2454 214.303 83.3117C214.312 83.3779 214.317 83.4618 214.317 83.5634ZM222.001 84.6035C222.001 84.6388 221.992 84.6698 221.975 84.6963C221.957 84.7228 221.926 84.7448 221.882 84.7625C221.838 84.7758 221.778 84.7868 221.703 84.7956C221.633 84.8089 221.544 84.8155 221.438 84.8155C221.323 84.8155 221.231 84.8089 221.16 84.7956C221.089 84.7868 221.032 84.7758 220.988 84.7625C220.944 84.7448 220.913 84.7228 220.895 84.6963C220.877 84.6698 220.868 84.6388 220.868 84.6035V80.8009H216.966V84.6035C216.966 84.6388 216.958 84.6698 216.94 84.6963C216.922 84.7228 216.891 84.7448 216.847 84.7625C216.803 84.7758 216.743 84.7868 216.668 84.7956C216.598 84.8089 216.507 84.8155 216.397 84.8155C216.291 84.8155 216.2 84.8089 216.125 84.7956C216.05 84.7868 215.99 84.7758 215.946 84.7625C215.902 84.7448 215.871 84.7228 215.854 84.6963C215.836 84.6698 215.827 84.6388 215.827 84.6035V76.3755C215.827 76.3402 215.836 76.3093 215.854 76.2828C215.871 76.2563 215.902 76.2364 215.946 76.2232C215.99 76.2055 216.05 76.1923 216.125 76.1834C216.2 76.1702 216.291 76.1635 216.397 76.1635C216.507 76.1635 216.598 76.1702 216.668 76.1834C216.743 76.1923 216.803 76.2055 216.847 76.2232C216.891 76.2364 216.922 76.2563 216.94 76.2828C216.958 76.3093 216.966 76.3402 216.966 76.3755V79.8072H220.868V76.3755C220.868 76.3402 220.877 76.3093 220.895 76.2828C220.913 76.2563 220.944 76.2364 220.988 76.2232C221.032 76.2055 221.089 76.1923 221.16 76.1834C221.231 76.1702 221.323 76.1635 221.438 76.1635C221.544 76.1635 221.633 76.1702 221.703 76.1834C221.778 76.1923 221.838 76.2055 221.882 76.2232C221.926 76.2364 221.957 76.2563 221.975 76.2828C221.992 76.3093 222.001 76.3402 222.001 76.3755V84.6035ZM230.759 84.3054C230.759 84.3937 230.744 84.4688 230.713 84.5306C230.686 84.5925 230.649 84.6433 230.6 84.683C230.556 84.7228 230.505 84.7515 230.448 84.7691C230.39 84.7868 230.333 84.7956 230.276 84.7956H229.911C229.796 84.7956 229.695 84.7846 229.607 84.7625C229.523 84.736 229.441 84.6918 229.361 84.63C229.286 84.5638 229.209 84.4754 229.13 84.365C229.054 84.2546 228.971 84.1133 228.878 83.941L226.175 79.0652C226.034 78.8135 225.89 78.5507 225.744 78.2768C225.603 77.9986 225.47 77.7292 225.347 77.4686H225.334C225.342 77.7866 225.349 78.1112 225.353 78.4425C225.358 78.7737 225.36 79.1027 225.36 79.4296V84.6035C225.36 84.6344 225.351 84.6653 225.334 84.6963C225.316 84.7228 225.285 84.7448 225.241 84.7625C225.201 84.7758 225.146 84.7868 225.075 84.7956C225.009 84.8089 224.923 84.8155 224.817 84.8155C224.711 84.8155 224.623 84.8089 224.552 84.7956C224.486 84.7868 224.433 84.7758 224.393 84.7625C224.353 84.7448 224.324 84.7228 224.307 84.6963C224.289 84.6653 224.28 84.6344 224.28 84.6035V76.6935C224.28 76.5169 224.329 76.391 224.426 76.3159C224.523 76.2408 224.629 76.2033 224.744 76.2033H225.287C225.415 76.2033 225.521 76.2143 225.605 76.2364C225.694 76.2585 225.771 76.296 225.837 76.349C225.908 76.3976 225.974 76.4683 226.036 76.561C226.102 76.6494 226.173 76.762 226.248 76.8989L228.328 80.6618C228.456 80.8914 228.58 81.1167 228.699 81.3375C228.818 81.5539 228.933 81.7681 229.043 81.9801C229.154 82.1921 229.262 82.4019 229.368 82.6095C229.478 82.8126 229.587 83.018 229.693 83.2256H229.699C229.69 82.8767 229.684 82.5145 229.679 82.1391C229.679 81.7593 229.679 81.3949 229.679 81.046V76.3954C229.679 76.3645 229.688 76.3358 229.706 76.3093C229.724 76.2828 229.752 76.2607 229.792 76.243C229.836 76.221 229.891 76.2055 229.958 76.1967C230.028 76.1878 230.119 76.1834 230.229 76.1834C230.326 76.1834 230.41 76.1878 230.481 76.1967C230.552 76.2055 230.607 76.221 230.647 76.243C230.686 76.2607 230.715 76.2828 230.733 76.3093C230.75 76.3358 230.759 76.3645 230.759 76.3954V84.3054ZM240.219 80.3902C240.219 81.0835 240.138 81.7085 239.974 82.265C239.811 82.8214 239.566 83.2962 239.239 83.6893C238.917 84.0779 238.51 84.3783 238.02 84.5903C237.53 84.7978 236.958 84.9016 236.304 84.9016C235.659 84.9016 235.101 84.8067 234.628 84.6168C234.16 84.4224 233.771 84.142 233.462 83.7754C233.157 83.4088 232.93 82.9539 232.78 82.4107C232.63 81.8675 232.555 81.2425 232.555 80.5359C232.555 79.8602 232.636 79.2463 232.8 78.6942C232.963 78.1421 233.208 77.674 233.535 77.2898C233.862 76.9011 234.27 76.603 234.761 76.3954C235.251 76.1834 235.823 76.0774 236.476 76.0774C237.108 76.0774 237.658 76.1724 238.126 76.3623C238.594 76.5522 238.983 76.8304 239.292 77.197C239.606 77.5592 239.837 78.0096 239.988 78.5485C240.142 79.0829 240.219 79.6968 240.219 80.3902ZM239.02 80.4697C239.02 79.9838 238.976 79.5333 238.888 79.1182C238.804 78.6986 238.66 78.3365 238.457 78.0317C238.259 77.7226 237.991 77.4819 237.656 77.3096C237.32 77.1374 236.905 77.0513 236.41 77.0513C235.916 77.0513 235.5 77.144 235.165 77.3295C234.829 77.515 234.555 77.7623 234.343 78.0715C234.136 78.3806 233.986 78.7428 233.893 79.1579C233.804 79.5687 233.76 80.0015 233.76 80.4564C233.76 80.9599 233.802 81.4236 233.886 81.8476C233.97 82.2716 234.111 82.6382 234.31 82.9473C234.509 83.2521 234.774 83.4905 235.105 83.6628C235.441 83.8306 235.86 83.9145 236.364 83.9145C236.863 83.9145 237.282 83.8218 237.623 83.6363C237.963 83.4508 238.236 83.2013 238.444 82.8877C238.652 82.5697 238.8 82.2031 238.888 81.788C238.976 81.3728 239.02 80.9334 239.02 80.4697ZM246.467 84.2789C246.467 84.3672 246.462 84.4423 246.453 84.5041C246.445 84.5616 246.429 84.6123 246.407 84.6565C246.389 84.6963 246.365 84.7272 246.334 84.7493C246.308 84.7669 246.274 84.7758 246.235 84.7758H242.445C242.344 84.7758 242.247 84.7426 242.154 84.6764C242.066 84.6057 242.021 84.4843 242.021 84.312V76.3755C242.021 76.3402 242.03 76.3093 242.048 76.2828C242.066 76.2563 242.096 76.2364 242.141 76.2232C242.185 76.2055 242.244 76.1923 242.319 76.1834C242.395 76.1702 242.485 76.1635 242.591 76.1635C242.702 76.1635 242.792 76.1702 242.863 76.1834C242.938 76.1923 242.997 76.2055 243.042 76.2232C243.086 76.2364 243.117 76.2563 243.134 76.2828C243.152 76.3093 243.161 76.3402 243.161 76.3755V83.7887H246.235C246.274 83.7887 246.308 83.7997 246.334 83.8218C246.365 83.8395 246.389 83.8682 246.407 83.9079C246.429 83.9432 246.445 83.9918 246.453 84.0537C246.462 84.1155 246.467 84.1906 246.467 84.2789ZM254.608 80.3902C254.608 81.0835 254.527 81.7085 254.363 82.265C254.2 82.8214 253.955 83.2962 253.628 83.6893C253.306 84.0779 252.899 84.3783 252.409 84.5903C251.919 84.7978 251.347 84.9016 250.693 84.9016C250.048 84.9016 249.49 84.8067 249.017 84.6168C248.549 84.4224 248.16 84.142 247.851 83.7754C247.546 83.4088 247.319 82.9539 247.169 82.4107C247.019 81.8675 246.944 81.2425 246.944 80.5359C246.944 79.8602 247.025 79.2463 247.189 78.6942C247.352 78.1421 247.597 77.674 247.924 77.2898C248.251 76.9011 248.659 76.603 249.15 76.3954C249.64 76.1834 250.212 76.0774 250.865 76.0774C251.497 76.0774 252.047 76.1724 252.515 76.3623C252.983 76.5522 253.372 76.8304 253.681 77.197C253.995 77.5592 254.226 78.0096 254.377 78.5485C254.531 79.0829 254.608 79.6968 254.608 80.3902ZM253.409 80.4697C253.409 79.9838 253.365 79.5333 253.277 79.1182C253.193 78.6986 253.049 78.3365 252.846 78.0317C252.648 77.7226 252.38 77.4819 252.045 77.3096C251.709 77.1374 251.294 77.0513 250.799 77.0513C250.305 77.0513 249.889 77.144 249.554 77.3295C249.218 77.515 248.944 77.7623 248.732 78.0715C248.525 78.3806 248.375 78.7428 248.282 79.1579C248.193 79.5687 248.149 80.0015 248.149 80.4564C248.149 80.9599 248.191 81.4236 248.275 81.8476C248.359 82.2716 248.5 82.6382 248.699 82.9473C248.898 83.2521 249.163 83.4905 249.494 83.6628C249.83 83.8306 250.249 83.9145 250.753 83.9145C251.252 83.9145 251.671 83.8218 252.012 83.6363C252.352 83.4508 252.625 83.2013 252.833 82.8877C253.041 82.5697 253.189 82.2031 253.277 81.788C253.365 81.3728 253.409 80.9334 253.409 80.4697ZM262.85 77.3693C262.85 77.4532 262.845 77.5282 262.836 77.5945C262.828 77.6563 262.814 77.7093 262.797 77.7535C262.779 77.7932 262.757 77.8219 262.73 77.8396C262.704 77.8573 262.675 77.8661 262.644 77.8661C262.591 77.8661 262.503 77.8242 262.379 77.7402C262.256 77.6563 262.09 77.5636 261.882 77.462C261.675 77.3604 261.425 77.2677 261.134 77.1838C260.847 77.0998 260.505 77.0579 260.107 77.0579C259.634 77.0579 259.21 77.144 258.835 77.3163C258.46 77.4885 258.142 77.727 257.881 78.0317C257.621 78.3365 257.42 78.6986 257.278 79.1182C257.141 79.5378 257.073 79.9927 257.073 80.4829C257.073 81.0305 257.148 81.5164 257.298 81.9404C257.453 82.3643 257.665 82.7221 257.934 83.0136C258.204 83.3051 258.524 83.5259 258.895 83.676C259.27 83.8262 259.681 83.9013 260.127 83.9013C260.392 83.9013 260.659 83.8704 260.928 83.8085C261.202 83.7423 261.456 83.6451 261.69 83.517V81.0195H259.703C259.628 81.0195 259.57 80.982 259.531 80.9069C259.495 80.8318 259.478 80.7148 259.478 80.5558C259.478 80.4719 259.482 80.4012 259.491 80.3438C259.5 80.2819 259.513 80.2334 259.531 80.198C259.553 80.1583 259.577 80.1296 259.604 80.1119C259.63 80.0942 259.663 80.0854 259.703 80.0854H262.426C262.474 80.0854 262.523 80.0942 262.571 80.1119C262.62 80.1296 262.664 80.1561 262.704 80.1914C262.744 80.2267 262.775 80.2753 262.797 80.3372C262.819 80.399 262.83 80.4697 262.83 80.5491V83.8152C262.83 83.93 262.81 84.0294 262.77 84.1133C262.73 84.1972 262.647 84.2723 262.518 84.3385C262.39 84.4004 262.225 84.4688 262.022 84.5439C261.818 84.619 261.609 84.683 261.392 84.736C261.176 84.789 260.957 84.8288 260.736 84.8553C260.516 84.8818 260.297 84.895 260.081 84.895C259.418 84.895 258.826 84.7934 258.305 84.5903C257.784 84.3827 257.342 84.089 256.98 83.7092C256.622 83.3293 256.349 82.8744 256.159 82.3445C255.969 81.8145 255.874 81.2227 255.874 80.569C255.874 79.8889 255.975 79.2728 256.179 78.7207C256.386 78.1686 256.675 77.6983 257.046 77.3096C257.422 76.921 257.87 76.6207 258.391 76.4087C258.917 76.1923 259.498 76.084 260.134 76.084C260.46 76.084 260.767 76.1128 261.054 76.1702C261.341 76.2276 261.595 76.296 261.816 76.3755C262.041 76.4506 262.229 76.5345 262.379 76.6273C262.534 76.7156 262.64 76.7885 262.697 76.8459C262.755 76.9033 262.794 76.9696 262.817 77.0446C262.839 77.1197 262.85 77.2279 262.85 77.3693ZM266.109 84.6035C266.109 84.6388 266.1 84.6698 266.083 84.6963C266.065 84.7228 266.034 84.7448 265.99 84.7625C265.946 84.7758 265.886 84.7868 265.811 84.7956C265.74 84.8089 265.65 84.8155 265.539 84.8155C265.433 84.8155 265.343 84.8089 265.268 84.7956C265.193 84.7868 265.133 84.7758 265.089 84.7625C265.045 84.7448 265.014 84.7228 264.996 84.6963C264.978 84.6698 264.97 84.6388 264.97 84.6035V76.3755C264.97 76.3402 264.978 76.3093 264.996 76.2828C265.018 76.2563 265.051 76.2364 265.095 76.2232C265.144 76.2055 265.204 76.1923 265.274 76.1834C265.349 76.1702 265.438 76.1635 265.539 76.1635C265.65 76.1635 265.74 76.1702 265.811 76.1834C265.886 76.1923 265.946 76.2055 265.99 76.2232C266.034 76.2364 266.065 76.2563 266.083 76.2828C266.1 76.3093 266.109 76.3402 266.109 76.3755V84.6035ZM273.158 84.3054C273.158 84.3849 273.153 84.4556 273.145 84.5174C273.136 84.5748 273.12 84.6234 273.098 84.6631C273.076 84.7029 273.05 84.7316 273.019 84.7493C272.992 84.7669 272.961 84.7758 272.926 84.7758H268.812C268.71 84.7758 268.613 84.7426 268.52 84.6764C268.432 84.6057 268.388 84.4843 268.388 84.312V76.667C268.388 76.4948 268.432 76.3755 268.52 76.3093C268.613 76.2386 268.71 76.2033 268.812 76.2033H272.88C272.915 76.2033 272.946 76.2121 272.972 76.2298C273.003 76.2475 273.028 76.2762 273.045 76.3159C273.063 76.3557 273.076 76.4065 273.085 76.4683C273.098 76.5257 273.105 76.5986 273.105 76.6869C273.105 76.7664 273.098 76.8371 273.085 76.8989C273.076 76.9563 273.063 77.0049 273.045 77.0446C273.028 77.08 273.003 77.1065 272.972 77.1241C272.946 77.1418 272.915 77.1506 272.88 77.1506H269.527V79.8403H272.403C272.438 79.8403 272.469 79.8513 272.495 79.8734C272.526 79.8911 272.551 79.9176 272.568 79.9529C272.59 79.9883 272.606 80.0368 272.615 80.0987C272.623 80.1605 272.628 80.2334 272.628 80.3173C272.628 80.3968 272.623 80.4652 272.615 80.5226C272.606 80.5801 272.59 80.6264 272.568 80.6618C272.551 80.6971 272.526 80.7236 272.495 80.7413C272.469 80.7545 272.438 80.7611 272.403 80.7611H269.527V83.8284H272.926C272.961 83.8284 272.992 83.8372 273.019 83.8549C273.05 83.8726 273.076 83.9013 273.098 83.941C273.12 83.9764 273.136 84.0249 273.145 84.0868C273.153 84.1442 273.158 84.2171 273.158 84.3054ZM279.485 82.371C279.485 82.7729 279.409 83.1306 279.259 83.4442C279.114 83.7577 278.908 84.0249 278.643 84.2458C278.383 84.4622 278.073 84.6256 277.716 84.736C277.362 84.8464 276.98 84.9016 276.57 84.9016C276.283 84.9016 276.015 84.8773 275.768 84.8288C275.525 84.7802 275.306 84.7206 275.112 84.6499C274.922 84.5792 274.761 84.5063 274.629 84.4313C274.5 84.3562 274.41 84.2921 274.357 84.2391C274.308 84.1862 274.271 84.1199 274.244 84.0404C274.222 83.9565 274.211 83.8461 274.211 83.7092C274.211 83.612 274.216 83.5325 274.224 83.4707C274.233 83.4044 274.247 83.3514 274.264 83.3117C274.282 83.2719 274.304 83.2454 274.33 83.2322C274.357 83.2145 274.388 83.2057 274.423 83.2057C274.485 83.2057 274.571 83.2432 274.682 83.3183C274.796 83.3934 274.942 83.4751 275.119 83.5634C275.295 83.6518 275.507 83.7357 275.755 83.8152C276.006 83.8902 276.296 83.9278 276.623 83.9278C276.87 83.9278 277.095 83.8947 277.298 83.8284C277.506 83.7622 277.683 83.6694 277.828 83.5502C277.978 83.4265 278.093 83.2763 278.173 83.0997C278.252 82.923 278.292 82.7221 278.292 82.4968C278.292 82.2539 278.237 82.0463 278.126 81.8741C278.016 81.7019 277.87 81.5517 277.689 81.4236C277.508 81.2911 277.301 81.1719 277.066 81.0659C276.837 80.9555 276.601 80.8451 276.358 80.7346C276.115 80.6198 275.878 80.4939 275.649 80.357C275.419 80.2201 275.214 80.0589 275.033 79.8734C274.852 79.6879 274.704 79.4715 274.589 79.2242C274.478 78.9725 274.423 78.6721 274.423 78.3232C274.423 77.9655 274.487 77.6475 274.615 77.3693C274.748 77.0866 274.929 76.8503 275.159 76.6604C275.393 76.4705 275.669 76.327 275.987 76.2298C276.309 76.1282 276.656 76.0774 277.027 76.0774C277.217 76.0774 277.407 76.0951 277.596 76.1304C277.791 76.1613 277.972 76.2055 278.14 76.2629C278.312 76.3159 278.464 76.3777 278.597 76.4484C278.729 76.5147 278.815 76.5699 278.855 76.614C278.899 76.6538 278.928 76.6869 278.941 76.7134C278.955 76.7355 278.966 76.7664 278.974 76.8061C278.983 76.8415 278.99 76.8856 278.994 76.9386C278.999 76.9916 279.001 77.0601 279.001 77.144C279.001 77.2235 278.996 77.2942 278.988 77.356C278.983 77.4178 278.974 77.4708 278.961 77.515C278.948 77.5547 278.928 77.5857 278.902 77.6077C278.879 77.6254 278.853 77.6342 278.822 77.6342C278.773 77.6342 278.696 77.6033 278.59 77.5415C278.489 77.4797 278.363 77.4112 278.213 77.3361C278.062 77.2566 277.884 77.186 277.676 77.1241C277.473 77.0579 277.243 77.0248 276.987 77.0248C276.748 77.0248 276.541 77.0579 276.364 77.1241C276.188 77.186 276.042 77.2699 275.927 77.3759C275.812 77.4819 275.726 77.6077 275.669 77.7535C275.611 77.8992 275.583 78.0538 275.583 78.2172C275.583 78.4557 275.638 78.6611 275.748 78.8333C275.859 79.0056 276.004 79.1579 276.185 79.2904C276.371 79.4229 276.581 79.5444 276.815 79.6548C277.049 79.7652 277.287 79.8778 277.53 79.9927C277.773 80.1031 278.012 80.2267 278.246 80.3637C278.48 80.4962 278.687 80.6551 278.868 80.8406C279.054 81.0217 279.202 81.2381 279.312 81.4899C279.427 81.7372 279.485 82.0309 279.485 82.371ZM288.64 84.2789C288.64 84.3672 288.636 84.4423 288.627 84.5041C288.618 84.5616 288.602 84.6123 288.58 84.6565C288.563 84.6963 288.538 84.7272 288.507 84.7493C288.481 84.7669 288.448 84.7758 288.408 84.7758H284.619C284.517 84.7758 284.42 84.7426 284.327 84.6764C284.239 84.6057 284.195 84.4843 284.195 84.312V76.3755C284.195 76.3402 284.204 76.3093 284.221 76.2828C284.239 76.2563 284.27 76.2364 284.314 76.2232C284.358 76.2055 284.418 76.1923 284.493 76.1834C284.568 76.1702 284.658 76.1635 284.764 76.1635C284.875 76.1635 284.965 76.1702 285.036 76.1834C285.111 76.1923 285.171 76.2055 285.215 76.2232C285.259 76.2364 285.29 76.2563 285.308 76.2828C285.325 76.3093 285.334 76.3402 285.334 76.3755V83.7887H288.408C288.448 83.7887 288.481 83.7997 288.507 83.8218C288.538 83.8395 288.563 83.8682 288.58 83.9079C288.602 83.9432 288.618 83.9918 288.627 84.0537C288.636 84.1155 288.64 84.1906 288.64 84.2789ZM294.351 84.2789C294.351 84.3672 294.346 84.4423 294.337 84.5041C294.328 84.5616 294.313 84.6123 294.291 84.6565C294.273 84.6963 294.249 84.7272 294.218 84.7493C294.192 84.7669 294.158 84.7758 294.119 84.7758H290.329C290.228 84.7758 290.131 84.7426 290.038 84.6764C289.949 84.6057 289.905 84.4843 289.905 84.312V76.3755C289.905 76.3402 289.914 76.3093 289.932 76.2828C289.949 76.2563 289.98 76.2364 290.025 76.2232C290.069 76.2055 290.128 76.1923 290.203 76.1834C290.278 76.1702 290.369 76.1635 290.475 76.1635C290.585 76.1635 290.676 76.1702 290.747 76.1834C290.822 76.1923 290.881 76.2055 290.925 76.2232C290.97 76.2364 291.001 76.2563 291.018 76.2828C291.036 76.3093 291.045 76.3402 291.045 76.3755V83.7887H294.119C294.158 83.7887 294.192 83.7997 294.218 83.8218C294.249 83.8395 294.273 83.8682 294.291 83.9079C294.313 83.9432 294.328 83.9918 294.337 84.0537C294.346 84.1155 294.351 84.1906 294.351 84.2789ZM300.883 78.7141C300.883 79.1425 300.812 79.5289 300.671 79.8734C300.529 80.2179 300.326 80.5116 300.061 80.7545C299.8 80.9974 299.478 81.1851 299.094 81.3176C298.714 81.4501 298.259 81.5164 297.729 81.5164H296.755V84.6035C296.755 84.6388 296.744 84.6698 296.722 84.6963C296.705 84.7228 296.674 84.7448 296.629 84.7625C296.59 84.7758 296.532 84.7868 296.457 84.7956C296.387 84.8089 296.296 84.8155 296.186 84.8155C296.075 84.8155 295.982 84.8089 295.907 84.7956C295.837 84.7868 295.779 84.7758 295.735 84.7625C295.691 84.7448 295.66 84.7228 295.642 84.6963C295.625 84.6698 295.616 84.6388 295.616 84.6035V76.6935C295.616 76.5169 295.662 76.391 295.755 76.3159C295.848 76.2408 295.951 76.2033 296.066 76.2033H297.901C298.087 76.2033 298.264 76.2121 298.431 76.2298C298.604 76.243 298.805 76.2762 299.034 76.3292C299.268 76.3777 299.505 76.4727 299.743 76.614C299.986 76.7509 300.191 76.921 300.359 77.1241C300.527 77.3273 300.655 77.5636 300.743 77.833C300.836 78.098 300.883 78.3917 300.883 78.7141ZM299.683 78.8068C299.683 78.4579 299.617 78.1664 299.485 77.9324C299.357 77.6983 299.195 77.5238 299.001 77.409C298.811 77.2942 298.612 77.2213 298.405 77.1904C298.202 77.1595 298.003 77.144 297.809 77.144H296.755V80.5823H297.782C298.127 80.5823 298.411 80.5381 298.637 80.4498C298.866 80.3614 299.059 80.24 299.213 80.0854C299.368 79.9264 299.485 79.7387 299.564 79.5223C299.644 79.3015 299.683 79.063 299.683 78.8068Z" fill="#5B5B5B"/>
</g>
<defs>
<clipPath id="clip0_1364_404">
<rect width="304" height="101.664" fill="white"/>
</clipPath>
</defs>
</svg>
