<svg width="88" height="144" viewBox="0 0 88 144" fill="none" xmlns="http://www.w3.org/2000/svg">
<g filter="url(#filter0_i_1505_410)">
<path d="M43.9258 143.953C35.4622 143.953 27.9427 142.13 21.3672 138.484C14.8568 134.839 9.74609 129.988 6.03516 123.934C2.38932 117.814 0.566406 111.108 0.566406 103.816L0.761719 40.4375C0.761719 33.0156 2.61719 26.3424 6.32812 20.418C9.97396 14.4284 15.0521 9.64323 21.5625 6.0625C28.0729 2.41667 35.5273 0.59375 43.9258 0.59375C52.5195 0.59375 60.0065 2.38411 66.3867 5.96484C72.7669 9.54557 77.7799 14.3633 81.4258 20.418C85.1367 26.4076 86.9922 33.0807 86.9922 40.4375L87.1875 103.816C87.1875 111.043 85.3646 117.716 81.7188 123.836C78.0078 129.956 72.8971 134.839 66.3867 138.484C59.9414 142.13 52.4544 143.953 43.9258 143.953ZM62.9688 103.816L62.7734 40.4375C62.7734 35.75 61.0156 31.9414 57.5 29.0117C54.0495 26.082 49.5247 24.6172 43.9258 24.6172C38.1966 24.6172 33.6068 26.082 30.1562 29.0117C26.7057 31.9414 24.9805 35.75 24.9805 40.4375V103.816C24.9805 108.764 26.7057 112.671 30.1562 115.535C33.6068 118.4 38.1966 119.832 43.9258 119.832C49.5247 119.832 54.082 118.4 57.5977 115.535C61.1784 112.671 62.9688 108.764 62.9688 103.816Z" fill="white"/>
</g>
<defs>
<filter id="filter0_i_1505_410" x="0.566406" y="0.59375" width="86.6211" height="147.359" filterUnits="userSpaceOnUse" color-interpolation-filters="sRGB">
<feFlood flood-opacity="0" result="BackgroundImageFix"/>
<feBlend mode="normal" in="SourceGraphic" in2="BackgroundImageFix" result="shape"/>
<feColorMatrix in="SourceAlpha" type="matrix" values="0 0 0 0 0 0 0 0 0 0 0 0 0 0 0 0 0 0 127 0" result="hardAlpha"/>
<feOffset dy="4"/>
<feGaussianBlur stdDeviation="2"/>
<feComposite in2="hardAlpha" operator="arithmetic" k2="-1" k3="1"/>
<feColorMatrix type="matrix" values="0 0 0 0 0 0 0 0 0 0 0 0 0 0 0 0 0 0 0.25 0"/>
<feBlend mode="normal" in2="shape" result="effect1_innerShadow_1505_410"/>
</filter>
</defs>
</svg>
