<svg width="79" height="142" viewBox="0 0 79 142" fill="none" xmlns="http://www.w3.org/2000/svg">
<g filter="url(#filter0_i_1475_4620)">
<path d="M76.6875 142H2.07812C1.42708 142 1.10156 141.674 1.10156 141.023V118.367C1.10156 118.107 1.23177 117.846 1.49219 117.586L50.9062 49.8125C51.8177 48.5755 52.5664 47.013 53.1523 45.125C53.8034 43.1719 54.1289 41.4792 54.1289 40.0469C54.1289 36.1406 52.7292 32.5599 49.9297 29.3047C47.1302 26.0495 43.582 24.4219 39.2852 24.4219C35.1836 24.4219 31.7005 25.9844 28.8359 29.1094C25.9714 32.2344 24.5391 36.2057 24.5391 41.0234V50.7891C24.5391 51.4401 24.2135 51.7656 23.5625 51.7656H1.10156C0.580729 51.7656 0.320312 51.4401 0.320312 50.7891V41.0234C0.320312 33.5365 2.17578 26.7331 5.88672 20.6133C9.53255 14.4935 14.3177 9.64323 20.2422 6.0625C26.1667 2.41667 32.5143 0.59375 39.2852 0.59375C46.4466 0.59375 52.9896 2.41667 58.9141 6.0625C64.7734 9.77344 69.4609 14.6237 72.9766 20.6133C76.5573 26.6029 78.3477 33.0807 78.3477 40.0469C78.3477 44.4089 77.5664 48.8685 76.0039 53.4258C74.5065 57.918 72.4232 61.9219 69.7539 65.4375L31.7656 117.586H76.6875C77.2734 117.586 77.5664 117.846 77.5664 118.367V141.023C77.5664 141.674 77.2734 142 76.6875 142Z" fill="white"/>
</g>
<defs>
<filter id="filter0_i_1475_4620" x="0.320312" y="0.59375" width="78.0273" height="145.406" filterUnits="userSpaceOnUse" color-interpolation-filters="sRGB">
<feFlood flood-opacity="0" result="BackgroundImageFix"/>
<feBlend mode="normal" in="SourceGraphic" in2="BackgroundImageFix" result="shape"/>
<feColorMatrix in="SourceAlpha" type="matrix" values="0 0 0 0 0 0 0 0 0 0 0 0 0 0 0 0 0 0 127 0" result="hardAlpha"/>
<feOffset dy="4"/>
<feGaussianBlur stdDeviation="2"/>
<feComposite in2="hardAlpha" operator="arithmetic" k2="-1" k3="1"/>
<feColorMatrix type="matrix" values="0 0 0 0 0 0 0 0 0 0 0 0 0 0 0 0 0 0 0.25 0"/>
<feBlend mode="normal" in2="shape" result="effect1_innerShadow_1475_4620"/>
</filter>
</defs>
</svg>
