<svg width="79" height="145" viewBox="0 0 79 145" fill="none" xmlns="http://www.w3.org/2000/svg">
<g filter="url(#filter0_i_1478_4621)">
<path d="M39.2852 144.246C32.319 144.246 25.8411 142.391 19.8516 138.68C13.9271 135.034 9.17448 130.151 5.59375 124.031C2.07812 117.846 0.320312 111.108 0.320312 103.816V94.832C0.320312 94.1159 0.580729 93.7578 1.10156 93.7578H23.5625C24.2135 93.7578 24.5391 94.1159 24.5391 94.832V103.816C24.5391 108.178 25.9388 111.954 28.7383 115.145C31.5378 118.27 35.0534 119.832 39.2852 119.832C43.9727 119.832 47.651 118.204 50.3203 114.949C52.9896 111.629 54.3242 107.918 54.3242 103.816V98.4453C54.3242 94.2786 53.0221 90.5352 50.418 87.2148C47.8138 83.8945 44.526 82.2344 40.5547 82.2344H32.7422C32.0911 82.2344 31.7656 81.8763 31.7656 81.1602L31.9609 58.7969C31.9609 58.276 32.2214 58.0156 32.7422 58.0156H40.5547C44.1354 58.0156 47.3255 56.6159 50.125 53.8164C52.9245 51.0169 54.3242 47.3385 54.3242 42.7812V40.0469C54.3242 35.75 52.8919 32.1042 50.0273 29.1094C47.1628 26.1146 43.582 24.6172 39.2852 24.6172C35.1836 24.6172 31.7005 26.1146 28.8359 29.1094C25.9714 32.1042 24.5391 35.75 24.5391 40.0469V49.6172C24.5391 50.2682 24.2786 50.5938 23.7578 50.5938H1.29688C0.776042 50.5938 0.515625 50.2682 0.515625 49.6172V38.9727C0.515625 31.681 2.37109 25.1706 6.08203 19.4414C9.72786 13.7122 14.513 9.15495 20.4375 5.76953C26.362 2.31901 32.6445 0.59375 39.2852 0.59375C46.5117 0.59375 53.0872 2.35156 59.0117 5.86719C64.9362 9.44792 69.6237 14.168 73.0742 20.0273C76.5898 25.8867 78.3477 32.332 78.3477 39.3633V42.5859C78.3477 48.4453 77.3711 53.5234 75.418 57.8203C73.4648 62.0521 70.763 66.1211 67.3125 70.0273C70.763 73.9987 73.4974 78.3607 75.5156 83.1133C77.5339 87.8659 78.543 92.7487 78.543 97.7617V103.816C78.543 111.238 76.7852 118.042 73.2695 124.227C69.6888 130.346 64.9362 135.229 59.0117 138.875C53.0872 142.456 46.5117 144.246 39.2852 144.246Z" fill="white"/>
</g>
<defs>
<filter id="filter0_i_1478_4621" x="0.320312" y="0.59375" width="78.2227" height="147.652" filterUnits="userSpaceOnUse" color-interpolation-filters="sRGB">
<feFlood flood-opacity="0" result="BackgroundImageFix"/>
<feBlend mode="normal" in="SourceGraphic" in2="BackgroundImageFix" result="shape"/>
<feColorMatrix in="SourceAlpha" type="matrix" values="0 0 0 0 0 0 0 0 0 0 0 0 0 0 0 0 0 0 127 0" result="hardAlpha"/>
<feOffset dy="4"/>
<feGaussianBlur stdDeviation="2"/>
<feComposite in2="hardAlpha" operator="arithmetic" k2="-1" k3="1"/>
<feColorMatrix type="matrix" values="0 0 0 0 0 0 0 0 0 0 0 0 0 0 0 0 0 0 0.25 0"/>
<feBlend mode="normal" in2="shape" result="effect1_innerShadow_1478_4621"/>
</filter>
</defs>
</svg>
