<svg width="84" height="140" viewBox="0 0 84 140" fill="none" xmlns="http://www.w3.org/2000/svg">
<g filter="url(#filter0_i_1478_4623)">
<path d="M68.1172 140H45.5586C45.0378 140 44.7773 139.674 44.7773 139.023V115.586H1.51562C0.994792 115.586 0.734375 115.26 0.734375 114.609V92.6367L44.2891 1.62109C44.6146 1.10026 45.0378 0.839844 45.5586 0.839844H68.1172C68.5078 0.839844 68.7031 1.10026 68.7031 1.62109L68.8984 91.7578H82.9609C83.612 91.7578 83.9375 92.1159 83.9375 92.832V114.609C83.9375 115.26 83.6771 115.586 83.1562 115.586H68.8984V139.023C68.8984 139.674 68.638 140 68.1172 140ZM24.3672 91.7578H44.7773V48.2031L24.3672 91.7578Z" fill="white"/>
</g>
<defs>
<filter id="filter0_i_1478_4623" x="0.734375" y="0.839844" width="83.2031" height="143.16" filterUnits="userSpaceOnUse" color-interpolation-filters="sRGB">
<feFlood flood-opacity="0" result="BackgroundImageFix"/>
<feBlend mode="normal" in="SourceGraphic" in2="BackgroundImageFix" result="shape"/>
<feColorMatrix in="SourceAlpha" type="matrix" values="0 0 0 0 0 0 0 0 0 0 0 0 0 0 0 0 0 0 127 0" result="hardAlpha"/>
<feOffset dy="4"/>
<feGaussianBlur stdDeviation="2"/>
<feComposite in2="hardAlpha" operator="arithmetic" k2="-1" k3="1"/>
<feColorMatrix type="matrix" values="0 0 0 0 0 0 0 0 0 0 0 0 0 0 0 0 0 0 0.25 0"/>
<feBlend mode="normal" in2="shape" result="effect1_innerShadow_1478_4623"/>
</filter>
</defs>
</svg>
