<svg width="79" height="142" viewBox="0 0 79 142" fill="none" xmlns="http://www.w3.org/2000/svg">
<g filter="url(#filter0_i_1478_4627)">
<path d="M39.75 141.953C32.6536 141.953 26.1432 140.163 20.2188 136.582C14.2292 133.001 9.41146 128.249 5.76562 122.324C2.1849 116.4 0.394531 109.954 0.394531 102.988V97.0312C0.394531 96.4453 0.720052 96.1523 1.37109 96.1523H24.0273C24.5482 96.1523 24.8086 96.4453 24.8086 97.0312V101.621C24.8086 106.113 26.2734 109.922 29.2031 113.047C32.1328 116.107 35.6484 117.637 39.75 117.637C43.9167 117.637 47.4323 116.074 50.2969 112.949C53.1615 109.759 54.5938 105.983 54.5938 101.621V88.0469C54.5938 83.8802 53.0964 80.3971 50.1016 77.5977C47.1068 74.7982 43.3958 73.3984 38.9688 73.3984C33.2396 73.3984 28.5195 75.6771 24.8086 80.2344L24.418 80.8203L3.03125 79.1602C2.3151 79.1602 1.95703 78.8346 1.95703 78.1836L4.39844 23.3984L5.57031 1.62109C5.57031 1.10026 5.83073 0.839844 6.35156 0.839844H73.6367C74.1576 0.839844 74.418 1.10026 74.418 1.62109V23.3984C74.418 24.0495 74.1576 24.375 73.6367 24.375H26.7617L25.7852 52.0117C27.4128 51.2305 29.5286 50.5794 32.1328 50.0586C34.737 49.4727 37.0807 49.1797 39.1641 49.1797C46.3906 49.1797 53.0312 50.9375 59.0859 54.4531C65.1406 58.0339 69.9583 62.7539 73.5391 68.6133C77.1849 74.4727 79.0078 80.9505 79.0078 88.0469V101.621C79.0078 108.848 77.25 115.553 73.7344 121.738C70.1536 127.858 65.401 132.773 59.4766 136.484C53.5521 140.13 46.9766 141.953 39.75 141.953Z" fill="white"/>
</g>
<defs>
<filter id="filter0_i_1478_4627" x="0.394531" y="0.839844" width="78.6133" height="145.113" filterUnits="userSpaceOnUse" color-interpolation-filters="sRGB">
<feFlood flood-opacity="0" result="BackgroundImageFix"/>
<feBlend mode="normal" in="SourceGraphic" in2="BackgroundImageFix" result="shape"/>
<feColorMatrix in="SourceAlpha" type="matrix" values="0 0 0 0 0 0 0 0 0 0 0 0 0 0 0 0 0 0 127 0" result="hardAlpha"/>
<feOffset dy="4"/>
<feGaussianBlur stdDeviation="2"/>
<feComposite in2="hardAlpha" operator="arithmetic" k2="-1" k3="1"/>
<feColorMatrix type="matrix" values="0 0 0 0 0 0 0 0 0 0 0 0 0 0 0 0 0 0 0.25 0"/>
<feBlend mode="normal" in2="shape" result="effect1_innerShadow_1478_4627"/>
</filter>
</defs>
</svg>
