<svg width="80" height="144" viewBox="0 0 80 144" fill="none" xmlns="http://www.w3.org/2000/svg">
<g filter="url(#filter0_i_1478_4629)">
<path d="M39.9219 143.953C32.9557 143.953 26.4779 142.13 20.4883 138.484C14.5638 134.839 9.77865 130.021 6.13281 124.031C2.55208 118.042 0.761719 111.434 0.761719 104.207L0.566406 41.0234C0.566406 33.7318 2.38932 26.9935 6.03516 20.8086C9.68099 14.6888 14.4661 9.80599 20.3906 6.16016C26.3802 2.44922 32.8906 0.59375 39.9219 0.59375C47.0833 0.59375 53.6589 2.41667 59.6484 6.0625C65.5729 9.77344 70.293 14.6562 73.8086 20.7109C77.3893 26.7656 79.1797 33.5365 79.1797 41.0234V45.0273C79.1797 45.5482 78.8542 45.8086 78.2031 45.8086H55.7422C55.2214 45.8086 54.9609 45.5482 54.9609 45.0273V41.0234C54.9609 36.5964 53.5286 32.8203 50.6641 29.6953C47.7995 26.5703 44.2188 25.0078 39.9219 25.0078C35.8203 25.0078 32.3047 26.5703 29.375 29.6953C26.4453 32.8203 24.9805 36.5964 24.9805 41.0234V54.793C29.668 52.7747 34.6484 51.7656 39.9219 51.7656C47.1484 51.7656 53.724 53.556 59.6484 57.1367C65.5729 60.7174 70.2604 65.5677 73.7109 71.6875C77.2266 77.7422 78.9844 84.4479 78.9844 91.8047V104.207C78.9844 111.434 77.2266 118.074 73.7109 124.129C70.1302 130.184 65.4102 135.001 59.5508 138.582C53.6914 142.163 47.1484 143.953 39.9219 143.953ZM39.9219 120.027C44.0885 120.027 47.6042 118.497 50.4688 115.438C53.3333 112.378 54.7656 108.634 54.7656 104.207V91.8047C54.7656 87.5078 53.3333 83.7969 50.4688 80.6719C47.6042 77.5469 44.0885 75.9844 39.9219 75.9844C35.8203 75.9844 32.3047 77.5143 29.375 80.5742C26.4453 83.6341 24.9805 87.3776 24.9805 91.8047V104.207C24.9805 108.439 26.4453 112.15 29.375 115.34C32.3047 118.465 35.8203 120.027 39.9219 120.027Z" fill="white"/>
</g>
<defs>
<filter id="filter0_i_1478_4629" x="0.566406" y="0.59375" width="78.6133" height="147.359" filterUnits="userSpaceOnUse" color-interpolation-filters="sRGB">
<feFlood flood-opacity="0" result="BackgroundImageFix"/>
<feBlend mode="normal" in="SourceGraphic" in2="BackgroundImageFix" result="shape"/>
<feColorMatrix in="SourceAlpha" type="matrix" values="0 0 0 0 0 0 0 0 0 0 0 0 0 0 0 0 0 0 127 0" result="hardAlpha"/>
<feOffset dy="4"/>
<feGaussianBlur stdDeviation="2"/>
<feComposite in2="hardAlpha" operator="arithmetic" k2="-1" k3="1"/>
<feColorMatrix type="matrix" values="0 0 0 0 0 0 0 0 0 0 0 0 0 0 0 0 0 0 0.25 0"/>
<feBlend mode="normal" in2="shape" result="effect1_innerShadow_1478_4629"/>
</filter>
</defs>
</svg>
