<svg width="80" height="144" viewBox="0 0 80 144" fill="none" xmlns="http://www.w3.org/2000/svg">
<g filter="url(#filter0_i_1478_4632)">
<path d="M40.0664 143.953C33.0352 143.953 26.5247 142.13 20.5352 138.484C14.5456 134.839 9.76042 129.956 6.17969 123.836C2.66406 117.651 0.90625 110.913 0.90625 103.621V99.6172C0.90625 99.0964 1.23177 98.8359 1.88281 98.8359H24.3438C24.8646 98.8359 25.125 99.0964 25.125 99.6172V103.621C25.125 107.983 26.5898 111.759 29.5195 114.949C32.4492 118.074 35.9648 119.637 40.0664 119.637C44.2331 119.637 47.7812 118.074 50.7109 114.949C53.6406 111.759 55.1055 107.983 55.1055 103.621V89.7539C50.418 91.7721 45.4049 92.7812 40.0664 92.7812C32.8398 92.7812 26.3294 90.9909 20.5352 87.4102C14.6758 83.8294 9.95573 79.0117 6.375 72.957C2.85938 66.8372 1.10156 60.1315 1.10156 52.8398V40.4375C1.10156 33.0156 2.89193 26.3424 6.47266 20.418C9.98828 14.4284 14.7083 9.64323 20.6328 6.0625C26.5573 2.41667 33.0352 0.59375 40.0664 0.59375C47.1628 0.59375 53.6732 2.38411 59.5977 5.96484C65.5221 9.54557 70.2747 14.3958 73.8555 20.5156C77.5013 26.5703 79.3242 33.2109 79.3242 40.4375V52.8398L79.5195 103.621C79.5195 110.913 77.7292 117.618 74.1484 123.738C70.5677 129.858 65.7826 134.773 59.793 138.484C53.8685 142.13 47.293 143.953 40.0664 143.953ZM40.0664 68.5625C44.3633 68.5625 47.944 67.0326 50.8086 63.9727C53.6732 60.9128 55.1055 57.2018 55.1055 52.8398V40.4375C55.1055 36.1406 53.6406 32.4297 50.7109 29.3047C47.7812 26.1797 44.2331 24.6172 40.0664 24.6172C35.9648 24.6172 32.4818 26.1471 29.6172 29.207C26.7526 32.2669 25.3203 36.0104 25.3203 40.4375V52.8398C25.3203 57.0716 26.7526 60.75 29.6172 63.875C32.4818 67 35.9648 68.5625 40.0664 68.5625Z" fill="white"/>
</g>
<defs>
<filter id="filter0_i_1478_4632" x="0.90625" y="0.59375" width="78.6133" height="147.359" filterUnits="userSpaceOnUse" color-interpolation-filters="sRGB">
<feFlood flood-opacity="0" result="BackgroundImageFix"/>
<feBlend mode="normal" in="SourceGraphic" in2="BackgroundImageFix" result="shape"/>
<feColorMatrix in="SourceAlpha" type="matrix" values="0 0 0 0 0 0 0 0 0 0 0 0 0 0 0 0 0 0 127 0" result="hardAlpha"/>
<feOffset dy="4"/>
<feGaussianBlur stdDeviation="2"/>
<feComposite in2="hardAlpha" operator="arithmetic" k2="-1" k3="1"/>
<feColorMatrix type="matrix" values="0 0 0 0 0 0 0 0 0 0 0 0 0 0 0 0 0 0 0.25 0"/>
<feBlend mode="normal" in2="shape" result="effect1_innerShadow_1478_4632"/>
</filter>
</defs>
</svg>
