<svg width="39" height="34" viewBox="0 0 39 34" fill="none" xmlns="http://www.w3.org/2000/svg">
<g filter="url(#filter0_d_1419_572)">
<path d="M23.5568 13.3158L15.6425 21.243C14.6049 22.1651 13.2542 22.6559 11.8668 22.6151C10.4793 22.5743 9.15982 22.0048 8.1783 21.0233C7.19678 20.0418 6.62736 18.7223 6.58651 17.3349C6.54567 15.9474 7.03649 14.5967 7.95858 13.5592L18.2037 3.31399C18.8154 2.73296 19.6268 2.409 20.4705 2.409C21.3141 2.409 22.1256 2.73296 22.7372 3.31399C23.3332 3.91793 23.6673 4.73227 23.6673 5.58074C23.6673 6.4292 23.3332 7.24354 22.7372 7.84748L13.9008 16.6711C13.8133 16.7653 13.7082 16.8413 13.5913 16.8949C13.4745 16.9484 13.3483 16.9784 13.2198 16.9832C13.0914 16.9879 12.9633 16.9674 12.8428 16.9226C12.7223 16.8779 12.6119 16.8098 12.5177 16.7224C12.4235 16.6349 12.3475 16.5298 12.2939 16.4129C12.2404 16.2961 12.2104 16.1698 12.2056 16.0414C12.2009 15.913 12.2214 15.7849 12.2662 15.6644C12.311 15.5439 12.379 15.4334 12.4665 15.3393L19.0362 8.78235C19.2773 8.5412 19.4128 8.21413 19.4128 7.87309C19.4128 7.53205 19.2773 7.20498 19.0362 6.96383C18.795 6.72268 18.4679 6.58721 18.1269 6.58721C17.7859 6.58721 17.4588 6.72268 17.2176 6.96383L10.6479 13.5464C10.3192 13.8725 10.0583 14.2606 9.88023 14.6881C9.70217 15.1156 9.6105 15.5741 9.6105 16.0372C9.6105 16.5003 9.70217 16.9588 9.88023 17.3863C10.0583 17.8138 10.3192 18.2019 10.6479 18.5281C11.3195 19.1677 12.2114 19.5245 13.1388 19.5245C14.0662 19.5245 14.9581 19.1677 15.6296 18.5281L24.4533 9.69161C25.4713 8.59916 26.0254 7.15423 25.9991 5.66124C25.9728 4.16826 25.3679 2.74378 24.3121 1.68792C23.2562 0.632053 21.8317 0.0272398 20.3388 0.000897837C18.8458 -0.0254442 17.4008 0.528742 16.3084 1.5467L6.06322 11.7919C4.68166 13.322 3.94379 15.3263 4.00334 17.387C4.0629 19.4477 4.91529 21.406 6.38292 22.8538C7.85055 24.3016 9.82022 25.1273 11.8816 25.1589C13.9429 25.1904 15.9369 24.4254 17.4482 23.0231L25.3754 15.1087C25.4948 14.9893 25.5895 14.8476 25.6541 14.6916C25.7187 14.5356 25.752 14.3683 25.752 14.1995C25.752 14.0306 25.7187 13.8634 25.6541 13.7074C25.5895 13.5514 25.4948 13.4096 25.3754 13.2902C25.256 13.1708 25.1142 13.0761 24.9582 13.0115C24.8022 12.9469 24.635 12.9136 24.4661 12.9136C24.2972 12.9136 24.13 12.9469 23.974 13.0115C23.818 13.0761 23.6763 13.1708 23.5568 13.2902V13.3158Z" fill="white"/>
</g>
<g filter="url(#filter1_d_1419_572)">
<path d="M32.875 11.2298H31.5V9.87979C31.5 9.52174 31.3551 9.17837 31.0973 8.92519C30.8394 8.67202 30.4897 8.52979 30.125 8.52979C29.7603 8.52979 29.4106 8.67202 29.1527 8.92519C28.8949 9.17837 28.75 9.52174 28.75 9.87979V11.2298H27.375C27.0103 11.2298 26.6606 11.372 26.4027 11.6252C26.1449 11.8784 26 12.2217 26 12.5798C26 12.9378 26.1449 13.2812 26.4027 13.5344C26.6606 13.7876 27.0103 13.9298 27.375 13.9298H28.75V15.2798C28.75 15.6378 28.8949 15.9812 29.1527 16.2344C29.4106 16.4876 29.7603 16.6298 30.125 16.6298C30.4897 16.6298 30.8394 16.4876 31.0973 16.2344C31.3551 15.9812 31.5 15.6378 31.5 15.2798V13.9298H32.875C33.2397 13.9298 33.5894 13.7876 33.8473 13.5344C34.1051 13.2812 34.25 12.9378 34.25 12.5798C34.25 12.2217 34.1051 11.8784 33.8473 11.6252C33.5894 11.372 33.2397 11.2298 32.875 11.2298Z" fill="white"/>
</g>
<defs>
<filter id="filter0_d_1419_572" x="0" y="0" width="30" height="33.1597" filterUnits="userSpaceOnUse" color-interpolation-filters="sRGB">
<feFlood flood-opacity="0" result="BackgroundImageFix"/>
<feColorMatrix in="SourceAlpha" type="matrix" values="0 0 0 0 0 0 0 0 0 0 0 0 0 0 0 0 0 0 127 0" result="hardAlpha"/>
<feOffset dy="4"/>
<feGaussianBlur stdDeviation="2"/>
<feComposite in2="hardAlpha" operator="out"/>
<feColorMatrix type="matrix" values="0 0 0 0 0 0 0 0 0 0 0 0 0 0 0 0 0 0 0.25 0"/>
<feBlend mode="normal" in2="BackgroundImageFix" result="effect1_dropShadow_1419_572"/>
<feBlend mode="normal" in="SourceGraphic" in2="effect1_dropShadow_1419_572" result="shape"/>
</filter>
<filter id="filter1_d_1419_572" x="22" y="3.52979" width="16.25" height="16.1001" filterUnits="userSpaceOnUse" color-interpolation-filters="sRGB">
<feFlood flood-opacity="0" result="BackgroundImageFix"/>
<feColorMatrix in="SourceAlpha" type="matrix" values="0 0 0 0 0 0 0 0 0 0 0 0 0 0 0 0 0 0 127 0" result="hardAlpha"/>
<feOffset dy="-1"/>
<feGaussianBlur stdDeviation="2"/>
<feComposite in2="hardAlpha" operator="out"/>
<feColorMatrix type="matrix" values="0 0 0 0 0 0 0 0 0 0 0 0 0 0 0 0 0 0 0.25 0"/>
<feBlend mode="normal" in2="BackgroundImageFix" result="effect1_dropShadow_1419_572"/>
<feBlend mode="normal" in="SourceGraphic" in2="effect1_dropShadow_1419_572" result="shape"/>
</filter>
</defs>
</svg>
