<svg width="30" height="34" viewBox="0 0 30 34" fill="none" xmlns="http://www.w3.org/2000/svg">
<g filter="url(#filter0_d_857_2759)">
<path d="M17.1269 9.39042H15.8769V8.14042C15.8769 7.8089 15.7452 7.49095 15.5108 7.25653C15.2764 7.02211 14.9584 6.89042 14.6269 6.89042C14.2954 6.89042 13.9775 7.02211 13.743 7.25653C13.5086 7.49095 13.3769 7.8089 13.3769 8.14042V9.39042H12.1269C11.7954 9.39042 11.4775 9.52211 11.243 9.75653C11.0086 9.99095 10.8769 10.3089 10.8769 10.6404C10.8769 10.9719 11.0086 11.2899 11.243 11.5243C11.4775 11.7587 11.7954 11.8904 12.1269 11.8904H13.3769V13.1404C13.3769 13.4719 13.5086 13.7899 13.743 14.0243C13.9775 14.2587 14.2954 14.3904 14.6269 14.3904C14.9584 14.3904 15.2764 14.2587 15.5108 14.0243C15.7452 13.7899 15.8769 13.4719 15.8769 13.1404V11.8904H17.1269C17.4584 11.8904 17.7764 11.7587 18.0108 11.5243C18.2452 11.2899 18.3769 10.9719 18.3769 10.6404C18.3769 10.3089 18.2452 9.99095 18.0108 9.75653C17.7764 9.52211 17.4584 9.39042 17.1269 9.39042ZM25.2019 9.61542C25.0399 7.9177 24.4715 6.28395 23.5449 4.8522C22.6183 3.42045 21.3607 2.23279 19.8783 1.38957C18.3959 0.546353 16.7324 0.0723628 15.0282 0.0076523C13.324 -0.0570582 11.6292 0.289412 10.0872 1.01779C8.54509 1.74616 7.20102 2.83503 6.16851 4.19239C5.13601 5.54975 4.44542 7.13571 4.15509 8.81624C3.86477 10.4968 3.98324 12.2225 4.5005 13.8476C5.01776 15.4727 5.91861 16.9494 7.12693 18.1529L13.7519 24.7904C13.8681 24.9076 14.0064 25.0006 14.1587 25.064C14.311 25.1275 14.4744 25.1602 14.6394 25.1602C14.8044 25.1602 14.9678 25.1275 15.1201 25.064C15.2725 25.0006 15.4107 24.9076 15.5269 24.7904L22.1269 18.1529C23.2409 17.0472 24.0948 15.7075 24.6267 14.2308C25.1586 12.7541 25.3551 11.1775 25.2019 9.61542ZM20.3769 16.3904L14.6269 22.1404L8.87693 16.3904C8.02954 15.543 7.38043 14.5183 6.97626 13.3901C6.57209 12.2619 6.42291 11.0582 6.53943 9.86542C6.6567 8.6543 7.04163 7.48437 7.66639 6.44022C8.29115 5.39607 9.14012 4.5038 10.1519 3.82792C11.4781 2.94696 13.0348 2.47704 14.6269 2.47704C16.219 2.47704 17.7757 2.94696 19.1019 3.82792C20.1107 4.50119 20.9578 5.38952 21.5824 6.42909C22.207 7.46866 22.5936 8.63367 22.7144 9.84042C22.8347 11.0372 22.6874 12.2458 22.2832 13.3786C21.8789 14.5114 21.2278 15.5402 20.3769 16.3904Z" fill="white"/>
</g>
<defs>
<filter id="filter0_d_857_2759" x="0" y="0" width="29.2524" height="33.1602" filterUnits="userSpaceOnUse" color-interpolation-filters="sRGB">
<feFlood flood-opacity="0" result="BackgroundImageFix"/>
<feColorMatrix in="SourceAlpha" type="matrix" values="0 0 0 0 0 0 0 0 0 0 0 0 0 0 0 0 0 0 127 0" result="hardAlpha"/>
<feOffset dy="4"/>
<feGaussianBlur stdDeviation="2"/>
<feComposite in2="hardAlpha" operator="out"/>
<feColorMatrix type="matrix" values="0 0 0 0 0 0 0 0 0 0 0 0 0 0 0 0 0 0 0.25 0"/>
<feBlend mode="normal" in2="BackgroundImageFix" result="effect1_dropShadow_857_2759"/>
<feBlend mode="normal" in="SourceGraphic" in2="effect1_dropShadow_857_2759" result="shape"/>
</filter>
</defs>
</svg>
