<svg width="34" height="32" viewBox="0 0 34 32" fill="none" xmlns="http://www.w3.org/2000/svg">
<g filter="url(#filter0_d_442_407)">
<path d="M23.375 5.16667H24.6667V6.45833C24.6667 6.8009 24.8027 7.12945 25.045 7.37168C25.2872 7.61391 25.6158 7.75 25.9583 7.75C26.3009 7.75 26.6294 7.61391 26.8717 7.37168C27.1139 7.12945 27.25 6.8009 27.25 6.45833V5.16667H28.5417C28.8842 5.16667 29.2128 5.03058 29.455 4.78835C29.6972 4.54611 29.8333 4.21757 29.8333 3.875C29.8333 3.53243 29.6972 3.20389 29.455 2.96165C29.2128 2.71942 28.8842 2.58333 28.5417 2.58333H27.25V1.29167C27.25 0.949095 27.1139 0.620555 26.8717 0.37832C26.6294 0.136086 26.3009 0 25.9583 0C25.6158 0 25.2872 0.136086 25.045 0.37832C24.8027 0.620555 24.6667 0.949095 24.6667 1.29167V2.58333H23.375C23.0324 2.58333 22.7039 2.71942 22.4617 2.96165C22.2194 3.20389 22.0833 3.53243 22.0833 3.875C22.0833 4.21757 22.2194 4.54611 22.4617 4.78835C22.7039 5.03058 23.0324 5.16667 23.375 5.16667ZM28.5417 10.3333C28.1991 10.3333 27.8706 10.4694 27.6283 10.7117C27.3861 10.9539 27.25 11.2824 27.25 11.625V19.375C27.25 19.7176 27.1139 20.0461 26.8717 20.2883C26.6294 20.5306 26.3009 20.6667 25.9583 20.6667H7.875C7.53243 20.6667 7.20389 20.5306 6.96165 20.2883C6.71942 20.0461 6.58333 19.7176 6.58333 19.375V6.98792L14.1783 14.5958C14.9049 15.3215 15.8898 15.7291 16.9167 15.7291C17.9435 15.7291 18.9284 15.3215 19.655 14.5958L22.8454 11.4054C23.0886 11.1622 23.2253 10.8323 23.2253 10.4883C23.2253 10.1444 23.0886 9.81448 22.8454 9.57125C22.6022 9.32802 22.2723 9.19138 21.9283 9.19138C21.5844 9.19138 21.2545 9.32802 21.0112 9.57125L17.8208 12.7617C17.5794 12.9983 17.2548 13.1309 16.9167 13.1309C16.5786 13.1309 16.2539 12.9983 16.0125 12.7617L8.40458 5.16667H18.2083C18.5509 5.16667 18.8794 5.03058 19.1217 4.78835C19.3639 4.54611 19.5 4.21757 19.5 3.875C19.5 3.53243 19.3639 3.20389 19.1217 2.96165C18.8794 2.71942 18.5509 2.58333 18.2083 2.58333H7.875C6.84729 2.58333 5.86166 2.99159 5.13496 3.71829C4.40826 4.445 4 5.43062 4 6.45833V19.375C4 20.4027 4.40826 21.3883 5.13496 22.115C5.86166 22.8417 6.84729 23.25 7.875 23.25H25.9583C26.986 23.25 27.9717 22.8417 28.6984 22.115C29.4251 21.3883 29.8333 20.4027 29.8333 19.375V11.625C29.8333 11.2824 29.6972 10.9539 29.455 10.7117C29.2128 10.4694 28.8842 10.3333 28.5417 10.3333Z" fill="white"/>
</g>
<defs>
<filter id="filter0_d_442_407" x="0" y="0" width="33.8335" height="31.25" filterUnits="userSpaceOnUse" color-interpolation-filters="sRGB">
<feFlood flood-opacity="0" result="BackgroundImageFix"/>
<feColorMatrix in="SourceAlpha" type="matrix" values="0 0 0 0 0 0 0 0 0 0 0 0 0 0 0 0 0 0 127 0" result="hardAlpha"/>
<feOffset dy="4"/>
<feGaussianBlur stdDeviation="2"/>
<feComposite in2="hardAlpha" operator="out"/>
<feColorMatrix type="matrix" values="0 0 0 0 0 0 0 0 0 0 0 0 0 0 0 0 0 0 0.25 0"/>
<feBlend mode="normal" in2="BackgroundImageFix" result="effect1_dropShadow_442_407"/>
<feBlend mode="normal" in="SourceGraphic" in2="effect1_dropShadow_442_407" result="shape"/>
</filter>
</defs>
</svg>
