<svg width="35" height="35" viewBox="0 0 35 35" fill="none" xmlns="http://www.w3.org/2000/svg">
<g filter="url(#filter0_d_442_378)">
<path d="M7.94574 27H24.8561C25.9042 26.997 26.9083 26.5778 27.648 25.8345C28.3878 25.0911 28.8027 24.0842 28.8018 23.0349V14.5279C28.8018 14.2286 28.683 13.9415 28.4716 13.7298C28.2602 13.5182 27.9735 13.3993 27.6745 13.3993C27.3755 13.3993 27.0887 13.5182 26.8773 13.7298C26.6659 13.9415 26.5471 14.2286 26.5471 14.5279V23.0349C26.5486 23.4857 26.3714 23.9187 26.0544 24.2389C25.7373 24.5591 25.3064 24.7402 24.8561 24.7426H7.94574C7.49545 24.7402 7.06449 24.5591 6.74746 24.2389C6.43043 23.9187 6.25321 23.4857 6.25471 23.0349V6.13386C6.25321 5.68303 6.43043 5.25001 6.74746 4.92985C7.06449 4.60969 7.49545 4.42854 7.94574 4.42615H16.4009C16.6999 4.42615 16.9866 4.30723 17.1981 4.09556C17.4095 3.88389 17.5283 3.5968 17.5283 3.29746C17.5283 2.99811 17.4095 2.71102 17.1981 2.49935C16.9866 2.28768 16.6999 2.16876 16.4009 2.16876H7.94574C6.89765 2.17175 5.89355 2.59093 5.1538 3.3343C4.41406 4.07768 3.9991 5.08451 4 6.13386V23.0349C3.9991 24.0842 4.41406 25.0911 5.1538 25.8345C5.89355 26.5778 6.89765 26.997 7.94574 27Z" fill="white"/>
<path d="M14.6591 11.8123L13.7697 15.8914C13.7294 16.0764 13.7363 16.2686 13.7897 16.4503C13.8431 16.6319 13.9412 16.7972 14.0752 16.9309C14.211 17.0613 14.3761 17.1569 14.5567 17.2098C14.7372 17.2626 14.9278 17.2711 15.1123 17.2346L19.1776 16.3418C19.3887 16.2953 19.582 16.1892 19.7345 16.0359L30.0092 5.74898C30.3233 5.43454 30.5725 5.06124 30.7425 4.65038C30.9125 4.23953 31 3.79917 31 3.35445C31 2.90974 30.9125 2.46938 30.7425 2.05853C30.5725 1.64767 30.3233 1.27437 30.0092 0.959933C29.3652 0.343821 28.5088 0 27.6181 0C26.7274 0 25.8709 0.343821 25.227 0.959933L14.968 11.257C14.8141 11.4087 14.7068 11.6014 14.6591 11.8123ZM26.8211 2.55703C27.0355 2.35132 27.3211 2.23648 27.6181 2.23648C27.9151 2.23648 28.2007 2.35132 28.4151 2.55703C28.6237 2.76994 28.7405 3.05625 28.7405 3.35445C28.7405 3.65266 28.6237 3.93897 28.4151 4.15188L27.6181 4.94986L26.024 3.35389L26.8211 2.55703ZM16.7876 12.6182L24.4243 4.95325L26.0026 6.54132L18.3625 14.2085L16.3389 14.6532L16.7876 12.6182Z" fill="white"/>
</g>
<defs>
<filter id="filter0_d_442_378" x="0" y="0" width="35" height="35" filterUnits="userSpaceOnUse" color-interpolation-filters="sRGB">
<feFlood flood-opacity="0" result="BackgroundImageFix"/>
<feColorMatrix in="SourceAlpha" type="matrix" values="0 0 0 0 0 0 0 0 0 0 0 0 0 0 0 0 0 0 127 0" result="hardAlpha"/>
<feOffset dy="4"/>
<feGaussianBlur stdDeviation="2"/>
<feComposite in2="hardAlpha" operator="out"/>
<feColorMatrix type="matrix" values="0 0 0 0 0 0 0 0 0 0 0 0 0 0 0 0 0 0 0.25 0"/>
<feBlend mode="normal" in2="BackgroundImageFix" result="effect1_dropShadow_442_378"/>
<feBlend mode="normal" in="SourceGraphic" in2="effect1_dropShadow_442_378" result="shape"/>
</filter>
</defs>
</svg>
