<svg width="26" height="30" viewBox="0 0 26 30" fill="none" xmlns="http://www.w3.org/2000/svg">
<g filter="url(#filter0_d_451_787)">
<path d="M20.7897 4.22103C18.7255 2.15864 15.9259 1 13.0067 1C10.0876 1 7.28796 2.15864 5.2238 4.22103C3.15963 6.28342 2 9.08062 2 11.9973C2 14.9139 3.15963 17.7111 5.2238 19.7735L12.0598 26.6166C12.1804 26.7381 12.3239 26.8345 12.4819 26.9003C12.64 26.9661 12.8096 27 12.9808 27C13.152 27 13.3216 26.9661 13.4796 26.9003C13.6377 26.8345 13.7812 26.7381 13.9018 26.6166L20.7897 19.7087C22.8452 17.6549 24 14.8694 24 11.9649C24 9.06038 22.8452 6.27484 20.7897 4.22103ZM18.9347 17.8554L13.0067 23.8042L7.07873 17.8554C5.90759 16.6842 5.11027 15.1923 4.78756 13.5685C4.46485 11.9446 4.63124 10.2616 5.2657 8.73214C5.90016 7.20272 6.9742 5.89558 8.35206 4.97594C9.72992 4.05631 11.3497 3.56547 13.0067 3.56547C14.6637 3.56547 16.2836 4.05631 17.6614 4.97594C19.0393 5.89558 20.1133 7.20272 20.7478 8.73214C21.3822 10.2616 21.5486 11.9446 21.2259 13.5685C20.9032 15.1923 20.1059 16.6842 18.9347 17.8554ZM9.11527 8.01843C8.06809 9.06793 7.48007 10.4894 7.48007 11.9714C7.48007 13.4533 8.06809 14.8748 9.11527 15.9243C9.89325 16.7029 10.8841 17.2347 11.9634 17.4528C13.0427 17.671 14.1624 17.5658 15.1822 17.1505C16.2019 16.7353 17.0762 16.0283 17.6953 15.1185C18.3144 14.2086 18.6508 13.1363 18.6623 12.0362C18.6682 11.3016 18.5266 10.5733 18.2458 9.89431C17.9651 9.21535 17.551 8.59952 17.0279 8.08323C16.5138 7.55779 15.9008 7.13912 15.2241 6.8513C14.5475 6.56349 13.8205 6.41222 13.0851 6.40619C12.3497 6.40017 11.6203 6.53951 10.939 6.81621C10.2577 7.0929 9.63792 7.50148 9.11527 8.01843ZM15.1989 14.0839C14.7074 14.5826 14.0577 14.8951 13.361 14.9681C12.6643 15.0412 11.9639 14.8701 11.3795 14.4843C10.795 14.0984 10.3629 13.5217 10.1569 12.8528C9.95092 12.1838 9.98391 11.4641 10.2502 10.8168C10.5165 10.1694 10.9996 9.63462 11.6169 9.30376C12.2342 8.97291 12.9474 8.86657 13.6345 9.00293C14.3216 9.13928 14.9399 9.50986 15.3838 10.0513C15.8277 10.5928 16.0695 11.2715 16.068 11.9714C16.0492 12.7714 15.7132 13.5312 15.1341 14.0839H15.1989Z" fill="white"/>
</g>
<defs>
<filter id="filter0_d_451_787" x="0" y="0" width="26" height="30" filterUnits="userSpaceOnUse" color-interpolation-filters="sRGB">
<feFlood flood-opacity="0" result="BackgroundImageFix"/>
<feColorMatrix in="SourceAlpha" type="matrix" values="0 0 0 0 0 0 0 0 0 0 0 0 0 0 0 0 0 0 127 0" result="hardAlpha"/>
<feOffset dy="1"/>
<feGaussianBlur stdDeviation="1"/>
<feComposite in2="hardAlpha" operator="out"/>
<feColorMatrix type="matrix" values="0 0 0 0 0 0 0 0 0 0 0 0 0 0 0 0 0 0 0.25 0"/>
<feBlend mode="normal" in2="BackgroundImageFix" result="effect1_dropShadow_451_787"/>
<feBlend mode="normal" in="SourceGraphic" in2="effect1_dropShadow_451_787" result="shape"/>
</filter>
</defs>
</svg>
