<svg width="31" height="31" viewBox="0 0 31 31" fill="none" xmlns="http://www.w3.org/2000/svg">
<g filter="url(#filter0_d_857_4788)">
<path d="M19.7832 12.6085C20.8453 11.7728 21.6205 10.627 22.001 9.33022C22.3816 8.0335 22.3484 6.65041 21.9063 5.37338C21.4642 4.09635 20.635 2.98888 19.5341 2.20505C18.4332 1.42122 17.1154 1 15.764 1C14.4126 1 13.0948 1.42122 11.994 2.20505C10.8931 2.98888 10.0639 4.09635 9.62177 5.37338C9.17962 6.65041 9.14651 8.0335 9.52703 9.33022C9.90755 10.627 10.6828 11.7728 11.7449 12.6085C9.92495 13.3376 8.33701 14.5469 7.15033 16.1075C5.96366 17.6681 5.22273 19.5215 5.00653 21.4701C4.99089 21.6124 5.00341 21.7563 5.0434 21.8938C5.08338 22.0312 5.15004 22.1594 5.23957 22.2711C5.42039 22.4966 5.68338 22.641 5.9707 22.6726C6.25802 22.7042 6.54612 22.6204 6.77164 22.4396C6.99715 22.2588 7.1416 21.9958 7.1732 21.7085C7.41108 19.5907 8.42086 17.6349 10.0096 16.2146C11.5983 14.7944 13.6547 14.0092 15.7857 14.0092C17.9167 14.0092 19.9731 14.7944 21.5618 16.2146C23.1505 17.6349 24.1603 19.5907 24.3982 21.7085C24.4277 21.9746 24.5547 22.2205 24.7547 22.3986C24.9548 22.5766 25.2137 22.6742 25.4815 22.6726H25.6007C25.8847 22.6399 26.1442 22.4964 26.3228 22.2731C26.5014 22.0499 26.5845 21.7652 26.554 21.481C26.3368 19.5268 25.5919 17.6687 24.3991 16.1057C23.2063 14.5427 21.6107 13.3337 19.7832 12.6085ZM15.764 11.8393C14.907 11.8393 14.0692 11.5851 13.3566 11.109C12.644 10.6328 12.0885 9.95606 11.7606 9.16425C11.4326 8.37244 11.3468 7.50115 11.514 6.66056C11.6812 5.81998 12.0939 5.04785 12.6999 4.44182C13.3059 3.8358 14.0781 3.42309 14.9186 3.25588C15.7592 3.08868 16.6305 3.1745 17.4223 3.50248C18.2141 3.83046 18.8909 4.38587 19.3671 5.09848C19.8432 5.8111 20.0974 6.6489 20.0974 7.50595C20.0974 8.65523 19.6408 9.75743 18.8282 10.5701C18.0155 11.3827 16.9133 11.8393 15.764 11.8393Z" fill="white"/>
<path d="M19.7832 12.6085C20.8453 11.7728 21.6205 10.627 22.001 9.33022C22.3816 8.0335 22.3484 6.65041 21.9063 5.37338C21.4642 4.09635 20.635 2.98888 19.5341 2.20505C18.4332 1.42122 17.1154 1 15.764 1C14.4126 1 13.0948 1.42122 11.994 2.20505C10.8931 2.98888 10.0639 4.09635 9.62177 5.37338C9.17962 6.65041 9.14651 8.0335 9.52703 9.33022C9.90755 10.627 10.6828 11.7728 11.7449 12.6085C9.92495 13.3376 8.33701 14.5469 7.15033 16.1075C5.96366 17.6681 5.22273 19.5215 5.00653 21.4701C4.99089 21.6124 5.00341 21.7563 5.0434 21.8938C5.08338 22.0312 5.15004 22.1594 5.23957 22.2711C5.42039 22.4966 5.68338 22.641 5.9707 22.6726C6.25802 22.7042 6.54612 22.6204 6.77164 22.4396C6.99715 22.2588 7.1416 21.9958 7.1732 21.7085C7.41108 19.5907 8.42086 17.6349 10.0096 16.2146C11.5983 14.7944 13.6547 14.0092 15.7857 14.0092C17.9167 14.0092 19.9731 14.7944 21.5618 16.2146C23.1505 17.6349 24.1603 19.5907 24.3982 21.7085C24.4277 21.9746 24.5547 22.2205 24.7547 22.3986C24.9548 22.5766 25.2137 22.6742 25.4815 22.6726H25.6007C25.8847 22.6399 26.1442 22.4964 26.3228 22.2731C26.5014 22.0499 26.5845 21.7652 26.554 21.481C26.3368 19.5268 25.5919 17.6687 24.3991 16.1057C23.2063 14.5427 21.6107 13.3337 19.7832 12.6085ZM15.764 11.8393C14.907 11.8393 14.0692 11.5851 13.3566 11.109C12.644 10.6328 12.0885 9.95606 11.7606 9.16425C11.4326 8.37244 11.3468 7.50115 11.514 6.66056C11.6812 5.81998 12.0939 5.04785 12.6999 4.44182C13.3059 3.8358 14.0781 3.42309 14.9186 3.25588C15.7592 3.08868 16.6305 3.1745 17.4223 3.50248C18.2141 3.83046 18.8909 4.38587 19.3671 5.09848C19.8432 5.8111 20.0974 6.6489 20.0974 7.50595C20.0974 8.65523 19.6408 9.75743 18.8282 10.5701C18.0155 11.3827 16.9133 11.8393 15.764 11.8393Z" stroke="white" stroke-width="0.5"/>
</g>
<defs>
<filter id="filter0_d_857_4788" x="0.75" y="0.75" width="30.0601" height="30.1792" filterUnits="userSpaceOnUse" color-interpolation-filters="sRGB">
<feFlood flood-opacity="0" result="BackgroundImageFix"/>
<feColorMatrix in="SourceAlpha" type="matrix" values="0 0 0 0 0 0 0 0 0 0 0 0 0 0 0 0 0 0 127 0" result="hardAlpha"/>
<feOffset dy="4"/>
<feGaussianBlur stdDeviation="2"/>
<feComposite in2="hardAlpha" operator="out"/>
<feColorMatrix type="matrix" values="0 0 0 0 0 0 0 0 0 0 0 0 0 0 0 0 0 0 0.25 0"/>
<feBlend mode="normal" in2="BackgroundImageFix" result="effect1_dropShadow_857_4788"/>
<feBlend mode="normal" in="SourceGraphic" in2="effect1_dropShadow_857_4788" result="shape"/>
</filter>
</defs>
</svg>
