<svg width="37" height="37" viewBox="0 0 37 37" fill="none" xmlns="http://www.w3.org/2000/svg">
<g filter="url(#filter0_d_467_453)">
<path fill-rule="evenodd" clip-rule="evenodd" d="M28.7748 4.21434C26.0487 1.49814 22.4232 0.00152668 18.5606 0C10.6017 0 4.12426 6.44603 4.12107 14.3693C4.12001 16.9019 4.78494 19.3742 6.04846 21.5534L4 29L11.6546 27.0017C13.7636 28.1465 16.1381 28.7498 18.5548 28.7508H18.5607C26.5187 28.7508 32.9968 22.304 33 14.3807C33.0015 10.541 31.501 6.93053 28.7748 4.21434ZM18.5607 26.3238H18.5558C16.4023 26.323 14.2901 25.7472 12.4475 24.659L12.0092 24.4001L7.46691 25.5859L8.67935 21.1784L8.39395 20.7266C7.1926 18.8249 6.55807 16.6269 6.55901 14.3702C6.56165 7.78469 11.9455 2.42703 18.5655 2.42703C21.771 2.42824 24.7843 3.67225 27.0502 5.92985C29.3162 8.18746 30.5633 11.1884 30.5621 14.3798C30.5593 20.9657 25.1756 26.3238 18.5607 26.3238ZM25.1437 17.3785C24.7829 17.1987 23.0091 16.3301 22.6784 16.2102C22.3477 16.0904 22.1072 16.0305 21.8666 16.39C21.6261 16.7494 20.9347 17.5582 20.7242 17.7978C20.5138 18.0375 20.3033 18.0675 19.9425 17.8877C19.5817 17.708 18.4192 17.3289 17.0411 16.1056C15.9686 15.1535 15.2445 13.9776 15.034 13.6182C14.8236 13.2587 15.0117 13.0643 15.1923 12.8854C15.3545 12.7245 15.553 12.466 15.7334 12.2563C15.9138 12.0466 15.9739 11.8969 16.0942 11.6572C16.2145 11.4176 16.1543 11.2079 16.0641 11.0282C15.9739 10.8485 15.2524 9.08111 14.9517 8.3622C14.6589 7.66205 14.3614 7.75678 14.14 7.74582C13.9298 7.7354 13.689 7.73317 13.4485 7.73317C13.208 7.73317 12.8171 7.82305 12.4864 8.18249C12.1557 8.54196 11.2237 9.41064 11.2237 11.1779C11.2237 12.9453 12.5165 14.6526 12.6969 14.8923C12.8772 15.1319 15.2409 18.7587 18.8602 20.314C19.721 20.6839 20.393 20.9048 20.917 21.0704C21.7813 21.3436 22.5678 21.3051 23.1895 21.2126C23.8827 21.1096 25.3241 20.344 25.6248 19.5053C25.9254 18.6665 25.9254 17.9476 25.8352 17.7979C25.745 17.6481 25.5045 17.5582 25.1437 17.3785Z" fill="white"/>
</g>
<defs>
<filter id="filter0_d_467_453" x="0" y="0" width="37" height="37" filterUnits="userSpaceOnUse" color-interpolation-filters="sRGB">
<feFlood flood-opacity="0" result="BackgroundImageFix"/>
<feColorMatrix in="SourceAlpha" type="matrix" values="0 0 0 0 0 0 0 0 0 0 0 0 0 0 0 0 0 0 127 0" result="hardAlpha"/>
<feOffset dy="4"/>
<feGaussianBlur stdDeviation="2"/>
<feComposite in2="hardAlpha" operator="out"/>
<feColorMatrix type="matrix" values="0 0 0 0 0 0 0 0 0 0 0 0 0 0 0 0 0 0 0.25 0"/>
<feBlend mode="normal" in2="BackgroundImageFix" result="effect1_dropShadow_467_453"/>
<feBlend mode="normal" in="SourceGraphic" in2="effect1_dropShadow_467_453" result="shape"/>
</filter>
</defs>
</svg>
